G04*
G04 #@! TF.GenerationSoftware,Altium Limited,Altium Designer,22.10.1 (41)*
G04*
G04 Layer_Color=2752767*
%FSLAX25Y25*%
%MOIN*%
G70*
G04*
G04 #@! TF.SameCoordinates,6EEB4584-1C63-4AE3-A79B-07B07B7A1057*
G04*
G04*
G04 #@! TF.FilePolarity,Positive*
G04*
G01*
G75*
%ADD80C,0.00267*%
%ADD81C,0.00200*%
D80*
X564081Y209333D02*
G03*
X564081Y209333I-800J0D01*
G01*
Y199333D02*
G03*
X564081Y199333I-800J0D01*
G01*
X534081D02*
G03*
X534081Y199333I-800J0D01*
G01*
X544081D02*
G03*
X544081Y199333I-800J0D01*
G01*
X554081D02*
G03*
X554081Y199333I-800J0D01*
G01*
X534081Y209333D02*
G03*
X534081Y209333I-800J0D01*
G01*
X544081D02*
G03*
X544081Y209333I-800J0D01*
G01*
X554081D02*
G03*
X554081Y209333I-800J0D01*
G01*
X574081Y199333D02*
G03*
X574081Y199333I-800J0D01*
G01*
Y209333D02*
G03*
X574081Y209333I-800J0D01*
G01*
X594081D02*
G03*
X594081Y209333I-800J0D01*
G01*
X584081D02*
G03*
X584081Y209333I-800J0D01*
G01*
X594081Y199333D02*
G03*
X594081Y199333I-800J0D01*
G01*
X584081D02*
G03*
X584081Y199333I-800J0D01*
G01*
D81*
X636963Y145808D02*
X637363Y146608D01*
X636963Y147408D01*
X637763Y147008D01*
X638563Y147408D01*
X638163Y146608D01*
X638563Y145808D01*
X637763Y146208D01*
X636963Y145808D01*
X652200Y150700D02*
X652600Y151500D01*
X652200Y152300D01*
X653000Y151900D01*
X653800Y152300D01*
X653400Y151500D01*
X653800Y150700D01*
X653000Y151100D01*
X652200Y150700D01*
X644702Y168529D02*
X645102Y169329D01*
X644702Y170129D01*
X645502Y169729D01*
X646302Y170129D01*
X645902Y169329D01*
X646302Y168529D01*
X645502Y168929D01*
X644702Y168529D01*
X617710Y164809D02*
Y166409D01*
X619310D01*
Y164809D01*
X617710D01*
Y168309D02*
Y169909D01*
X619310D01*
Y168309D01*
X617710D01*
X550817Y181117D02*
Y182717D01*
X552418D01*
Y181117D01*
X550817D01*
X533567D02*
Y182717D01*
X535167D01*
Y181117D01*
X533567D01*
X531025D02*
Y182717D01*
X532625D01*
Y181117D01*
X531025D01*
X541476D02*
Y182717D01*
X543076D01*
Y181117D01*
X541476D01*
X659200Y207200D02*
X659600Y208000D01*
X659200Y208800D01*
X660000Y208400D01*
X660800Y208800D01*
X660400Y208000D01*
X660800Y207200D01*
X660000Y207600D01*
X659200Y207200D01*
X655200Y199200D02*
X655600Y200000D01*
X655200Y200800D01*
X656000Y200400D01*
X656800Y200800D01*
X656400Y200000D01*
X656800Y199200D01*
X656000Y199600D01*
X655200Y199200D01*
X659200Y191200D02*
X659600Y192000D01*
X659200Y192800D01*
X660000Y192400D01*
X660800Y192800D01*
X660400Y192000D01*
X660800Y191200D01*
X660000Y191600D01*
X659200Y191200D01*
X655200Y183200D02*
X655600Y184000D01*
X655200Y184800D01*
X656000Y184400D01*
X656800Y184800D01*
X656400Y184000D01*
X656800Y183200D01*
X656000Y183600D01*
X655200Y183200D01*
X659200Y175200D02*
X659600Y176000D01*
X659200Y176800D01*
X660000Y176400D01*
X660800Y176800D01*
X660400Y176000D01*
X660800Y175200D01*
X660000Y175600D01*
X659200Y175200D01*
X655200Y167200D02*
X655600Y168000D01*
X655200Y168800D01*
X656000Y168400D01*
X656800Y168800D01*
X656400Y168000D01*
X656800Y167200D01*
X656000Y167600D01*
X655200Y167200D01*
Y135200D02*
X655600Y136000D01*
X655200Y136800D01*
X656000Y136400D01*
X656800Y136800D01*
X656400Y136000D01*
X656800Y135200D01*
X656000Y135600D01*
X655200Y135200D01*
X651200Y207200D02*
X651600Y208000D01*
X651200Y208800D01*
X652000Y208400D01*
X652800Y208800D01*
X652400Y208000D01*
X652800Y207200D01*
X652000Y207600D01*
X651200Y207200D01*
X647200Y199200D02*
X647600Y200000D01*
X647200Y200800D01*
X648000Y200400D01*
X648800Y200800D01*
X648400Y200000D01*
X648800Y199200D01*
X648000Y199600D01*
X647200Y199200D01*
X651200Y191200D02*
X651600Y192000D01*
X651200Y192800D01*
X652000Y192400D01*
X652800Y192800D01*
X652400Y192000D01*
X652800Y191200D01*
X652000Y191600D01*
X651200Y191200D01*
X647200Y183200D02*
X647600Y184000D01*
X647200Y184800D01*
X648000Y184400D01*
X648800Y184800D01*
X648400Y184000D01*
X648800Y183200D01*
X648000Y183600D01*
X647200Y183200D01*
X651200Y175200D02*
X651600Y176000D01*
X651200Y176800D01*
X652000Y176400D01*
X652800Y176800D01*
X652400Y176000D01*
X652800Y175200D01*
X652000Y175600D01*
X651200Y175200D01*
X647200Y167200D02*
X647600Y168000D01*
X647200Y168800D01*
X648000Y168400D01*
X648800Y168800D01*
X648400Y168000D01*
X648800Y167200D01*
X648000Y167600D01*
X647200Y167200D01*
Y135200D02*
X647600Y136000D01*
X647200Y136800D01*
X648000Y136400D01*
X648800Y136800D01*
X648400Y136000D01*
X648800Y135200D01*
X648000Y135600D01*
X647200Y135200D01*
X643200Y207200D02*
X643600Y208000D01*
X643200Y208800D01*
X644000Y208400D01*
X644800Y208800D01*
X644400Y208000D01*
X644800Y207200D01*
X644000Y207600D01*
X643200Y207200D01*
X639200Y199200D02*
X639600Y200000D01*
X639200Y200800D01*
X640000Y200400D01*
X640800Y200800D01*
X640400Y200000D01*
X640800Y199200D01*
X640000Y199600D01*
X639200Y199200D01*
X643200Y191200D02*
X643600Y192000D01*
X643200Y192800D01*
X644000Y192400D01*
X644800Y192800D01*
X644400Y192000D01*
X644800Y191200D01*
X644000Y191600D01*
X643200Y191200D01*
Y175200D02*
X643600Y176000D01*
X643200Y176800D01*
X644000Y176400D01*
X644800Y176800D01*
X644400Y176000D01*
X644800Y175200D01*
X644000Y175600D01*
X643200Y175200D01*
X639200Y135200D02*
X639600Y136000D01*
X639200Y136800D01*
X640000Y136400D01*
X640800Y136800D01*
X640400Y136000D01*
X640800Y135200D01*
X640000Y135600D01*
X639200Y135200D01*
X635200Y207200D02*
X635600Y208000D01*
X635200Y208800D01*
X636000Y208400D01*
X636800Y208800D01*
X636400Y208000D01*
X636800Y207200D01*
X636000Y207600D01*
X635200Y207200D01*
X631200Y199200D02*
X631600Y200000D01*
X631200Y200800D01*
X632000Y200400D01*
X632800Y200800D01*
X632400Y200000D01*
X632800Y199200D01*
X632000Y199600D01*
X631200Y199200D01*
X635200Y191200D02*
X635600Y192000D01*
X635200Y192800D01*
X636000Y192400D01*
X636800Y192800D01*
X636400Y192000D01*
X636800Y191200D01*
X636000Y191600D01*
X635200Y191200D01*
Y143200D02*
X635600Y144000D01*
X635200Y144800D01*
X636000Y144400D01*
X636800Y144800D01*
X636400Y144000D01*
X636800Y143200D01*
X636000Y143600D01*
X635200Y143200D01*
X631200Y135200D02*
X631600Y136000D01*
X631200Y136800D01*
X632000Y136400D01*
X632800Y136800D01*
X632400Y136000D01*
X632800Y135200D01*
X632000Y135600D01*
X631200Y135200D01*
X627200Y207200D02*
X627600Y208000D01*
X627200Y208800D01*
X628000Y208400D01*
X628800Y208800D01*
X628400Y208000D01*
X628800Y207200D01*
X628000Y207600D01*
X627200Y207200D01*
X623200Y199200D02*
X623600Y200000D01*
X623200Y200800D01*
X624000Y200400D01*
X624800Y200800D01*
X624400Y200000D01*
X624800Y199200D01*
X624000Y199600D01*
X623200Y199200D01*
X627200Y191200D02*
X627600Y192000D01*
X627200Y192800D01*
X628000Y192400D01*
X628800Y192800D01*
X628400Y192000D01*
X628800Y191200D01*
X628000Y191600D01*
X627200Y191200D01*
Y143200D02*
X627600Y144000D01*
X627200Y144800D01*
X628000Y144400D01*
X628800Y144800D01*
X628400Y144000D01*
X628800Y143200D01*
X628000Y143600D01*
X627200Y143200D01*
X623200Y135200D02*
X623600Y136000D01*
X623200Y136800D01*
X624000Y136400D01*
X624800Y136800D01*
X624400Y136000D01*
X624800Y135200D01*
X624000Y135600D01*
X623200Y135200D01*
X619200Y207200D02*
X619600Y208000D01*
X619200Y208800D01*
X620000Y208400D01*
X620800Y208800D01*
X620400Y208000D01*
X620800Y207200D01*
X620000Y207600D01*
X619200Y207200D01*
X615200Y199200D02*
X615600Y200000D01*
X615200Y200800D01*
X616000Y200400D01*
X616800Y200800D01*
X616400Y200000D01*
X616800Y199200D01*
X616000Y199600D01*
X615200Y199200D01*
Y183200D02*
X615600Y184000D01*
X615200Y184800D01*
X616000Y184400D01*
X616800Y184800D01*
X616400Y184000D01*
X616800Y183200D01*
X616000Y183600D01*
X615200Y183200D01*
Y135200D02*
X615600Y136000D01*
X615200Y136800D01*
X616000Y136400D01*
X616800Y136800D01*
X616400Y136000D01*
X616800Y135200D01*
X616000Y135600D01*
X615200Y135200D01*
X611200Y207200D02*
X611600Y208000D01*
X611200Y208800D01*
X612000Y208400D01*
X612800Y208800D01*
X612400Y208000D01*
X612800Y207200D01*
X612000Y207600D01*
X611200Y207200D01*
X607200Y199200D02*
X607600Y200000D01*
X607200Y200800D01*
X608000Y200400D01*
X608800Y200800D01*
X608400Y200000D01*
X608800Y199200D01*
X608000Y199600D01*
X607200Y199200D01*
X611200Y191200D02*
X611600Y192000D01*
X611200Y192800D01*
X612000Y192400D01*
X612800Y192800D01*
X612400Y192000D01*
X612800Y191200D01*
X612000Y191600D01*
X611200Y191200D01*
Y175200D02*
X611600Y176000D01*
X611200Y176800D01*
X612000Y176400D01*
X612800Y176800D01*
X612400Y176000D01*
X612800Y175200D01*
X612000Y175600D01*
X611200Y175200D01*
X603200Y207200D02*
X603600Y208000D01*
X603200Y208800D01*
X604000Y208400D01*
X604800Y208800D01*
X604400Y208000D01*
X604800Y207200D01*
X604000Y207600D01*
X603200Y207200D01*
Y175200D02*
X603600Y176000D01*
X603200Y176800D01*
X604000Y176400D01*
X604800Y176800D01*
X604400Y176000D01*
X604800Y175200D01*
X604000Y175600D01*
X603200Y175200D01*
X595200D02*
X595600Y176000D01*
X595200Y176800D01*
X596000Y176400D01*
X596800Y176800D01*
X596400Y176000D01*
X596800Y175200D01*
X596000Y175600D01*
X595200Y175200D01*
X591200Y135200D02*
X591600Y136000D01*
X591200Y136800D01*
X592000Y136400D01*
X592800Y136800D01*
X592400Y136000D01*
X592800Y135200D01*
X592000Y135600D01*
X591200Y135200D01*
X587200Y207200D02*
X587600Y208000D01*
X587200Y208800D01*
X588000Y208400D01*
X588800Y208800D01*
X588400Y208000D01*
X588800Y207200D01*
X588000Y207600D01*
X587200Y207200D01*
X583200Y135200D02*
X583600Y136000D01*
X583200Y136800D01*
X584000Y136400D01*
X584800Y136800D01*
X584400Y136000D01*
X584800Y135200D01*
X584000Y135600D01*
X583200Y135200D01*
X559200Y183200D02*
X559600Y184000D01*
X559200Y184800D01*
X560000Y184400D01*
X560800Y184800D01*
X560400Y184000D01*
X560800Y183200D01*
X560000Y183600D01*
X559200Y183200D01*
Y135200D02*
X559600Y136000D01*
X559200Y136800D01*
X560000Y136400D01*
X560800Y136800D01*
X560400Y136000D01*
X560800Y135200D01*
X560000Y135600D01*
X559200Y135200D01*
X555200Y191200D02*
X555600Y192000D01*
X555200Y192800D01*
X556000Y192400D01*
X556800Y192800D01*
X556400Y192000D01*
X556800Y191200D01*
X556000Y191600D01*
X555200Y191200D01*
X547200Y207200D02*
X547600Y208000D01*
X547200Y208800D01*
X548000Y208400D01*
X548800Y208800D01*
X548400Y208000D01*
X548800Y207200D01*
X548000Y207600D01*
X547200Y207200D01*
Y191200D02*
X547600Y192000D01*
X547200Y192800D01*
X548000Y192400D01*
X548800Y192800D01*
X548400Y192000D01*
X548800Y191200D01*
X548000Y191600D01*
X547200Y191200D01*
X543200Y151200D02*
X543600Y152000D01*
X543200Y152800D01*
X544000Y152400D01*
X544800Y152800D01*
X544400Y152000D01*
X544800Y151200D01*
X544000Y151600D01*
X543200Y151200D01*
X547200Y143200D02*
X547600Y144000D01*
X547200Y144800D01*
X548000Y144400D01*
X548800Y144800D01*
X548400Y144000D01*
X548800Y143200D01*
X548000Y143600D01*
X547200Y143200D01*
X543200Y135200D02*
X543600Y136000D01*
X543200Y136800D01*
X544000Y136400D01*
X544800Y136800D01*
X544400Y136000D01*
X544800Y135200D01*
X544000Y135600D01*
X543200Y135200D01*
X539200Y191200D02*
X539600Y192000D01*
X539200Y192800D01*
X540000Y192400D01*
X540800Y192800D01*
X540400Y192000D01*
X540800Y191200D01*
X540000Y191600D01*
X539200Y191200D01*
Y175200D02*
X539600Y176000D01*
X539200Y176800D01*
X540000Y176400D01*
X540800Y176800D01*
X540400Y176000D01*
X540800Y175200D01*
X540000Y175600D01*
X539200Y175200D01*
X535200Y167200D02*
X535600Y168000D01*
X535200Y168800D01*
X536000Y168400D01*
X536800Y168800D01*
X536400Y168000D01*
X536800Y167200D01*
X536000Y167600D01*
X535200Y167200D01*
Y151200D02*
X535600Y152000D01*
X535200Y152800D01*
X536000Y152400D01*
X536800Y152800D01*
X536400Y152000D01*
X536800Y151200D01*
X536000Y151600D01*
X535200Y151200D01*
X539200Y143200D02*
X539600Y144000D01*
X539200Y144800D01*
X540000Y144400D01*
X540800Y144800D01*
X540400Y144000D01*
X540800Y143200D01*
X540000Y143600D01*
X539200Y143200D01*
X535200Y135200D02*
X535600Y136000D01*
X535200Y136800D01*
X536000Y136400D01*
X536800Y136800D01*
X536400Y136000D01*
X536800Y135200D01*
X536000Y135600D01*
X535200Y135200D01*
X527200Y199200D02*
X527600Y200000D01*
X527200Y200800D01*
X528000Y200400D01*
X528800Y200800D01*
X528400Y200000D01*
X528800Y199200D01*
X528000Y199600D01*
X527200Y199200D01*
Y183200D02*
X527600Y184000D01*
X527200Y184800D01*
X528000Y184400D01*
X528800Y184800D01*
X528400Y184000D01*
X528800Y183200D01*
X528000Y183600D01*
X527200Y183200D01*
Y167200D02*
X527600Y168000D01*
X527200Y168800D01*
X528000Y168400D01*
X528800Y168800D01*
X528400Y168000D01*
X528800Y167200D01*
X528000Y167600D01*
X527200Y167200D01*
X531200Y159200D02*
X531600Y160000D01*
X531200Y160800D01*
X532000Y160400D01*
X532800Y160800D01*
X532400Y160000D01*
X532800Y159200D01*
X532000Y159600D01*
X531200Y159200D01*
X527200Y151200D02*
X527600Y152000D01*
X527200Y152800D01*
X528000Y152400D01*
X528800Y152800D01*
X528400Y152000D01*
X528800Y151200D01*
X528000Y151600D01*
X527200Y151200D01*
X531200Y143200D02*
X531600Y144000D01*
X531200Y144800D01*
X532000Y144400D01*
X532800Y144800D01*
X532400Y144000D01*
X532800Y143200D01*
X532000Y143600D01*
X531200Y143200D01*
X527200Y135200D02*
X527600Y136000D01*
X527200Y136800D01*
X528000Y136400D01*
X528800Y136800D01*
X528400Y136000D01*
X528800Y135200D01*
X528000Y135600D01*
X527200Y135200D01*
X581506Y183865D02*
Y185465D01*
X583106D01*
Y183865D01*
X581506D01*
X565730Y189351D02*
Y190951D01*
X567330D01*
Y189351D01*
X565730D01*
X579142Y189689D02*
Y191289D01*
X580742D01*
Y189689D01*
X579142D01*
X562441Y184118D02*
Y185718D01*
X564041D01*
Y184118D01*
X562441D01*
X569053Y185440D02*
Y187040D01*
X570653D01*
Y185440D01*
X569053D01*
X575152Y185966D02*
Y187566D01*
X576752D01*
Y185966D01*
X575152D01*
X598689Y192595D02*
Y194195D01*
X600289D01*
Y192595D01*
X598689D01*
X543815Y181117D02*
Y182717D01*
X545415D01*
Y181117D01*
X543815D01*
X570555Y180371D02*
Y181971D01*
X572155D01*
Y180371D01*
X570555D01*
X560157Y156887D02*
Y158487D01*
X561757D01*
Y156887D01*
X560157D01*
X574902Y132200D02*
Y133800D01*
X576502D01*
Y132200D01*
X574902D01*
Y140200D02*
Y141800D01*
X576502D01*
Y140200D01*
X574902D01*
Y134200D02*
Y135800D01*
X576502D01*
Y134200D01*
X574902D01*
Y136200D02*
Y137800D01*
X576502D01*
Y136200D01*
X574902D01*
Y138200D02*
Y139800D01*
X576502D01*
Y138200D01*
X574902D01*
Y142200D02*
Y143800D01*
X576502D01*
Y142200D01*
X574902D01*
Y144200D02*
Y145800D01*
X576502D01*
Y144200D01*
X574902D01*
Y146200D02*
Y147800D01*
X576502D01*
Y146200D01*
X574902D01*
X576902Y145200D02*
Y146800D01*
X578502D01*
Y145200D01*
X576902D01*
Y141200D02*
Y142800D01*
X578502D01*
Y141200D01*
X576902D01*
Y135200D02*
Y136800D01*
X578502D01*
Y135200D01*
X576902D01*
Y137200D02*
Y138800D01*
X578502D01*
Y137200D01*
X576902D01*
Y139200D02*
Y140800D01*
X578502D01*
Y139200D01*
X576902D01*
Y143200D02*
Y144800D01*
X578502D01*
Y143200D01*
X576902D01*
Y133200D02*
Y134800D01*
X578502D01*
Y133200D01*
X576902D01*
X564498Y133359D02*
Y134959D01*
X566098D01*
Y133359D01*
X564498D01*
Y143359D02*
Y144959D01*
X566098D01*
Y143359D01*
X564498D01*
Y139359D02*
Y140959D01*
X566098D01*
Y139359D01*
X564498D01*
Y137359D02*
Y138959D01*
X566098D01*
Y137359D01*
X564498D01*
Y135359D02*
Y136959D01*
X566098D01*
Y135359D01*
X564498D01*
Y141359D02*
Y142959D01*
X566098D01*
Y141359D01*
X564498D01*
Y147359D02*
Y148959D01*
X566098D01*
Y147359D01*
X564498D01*
Y145359D02*
Y146959D01*
X566098D01*
Y145359D01*
X564498D01*
X576202Y147996D02*
Y149596D01*
X577802D01*
Y147996D01*
X576202D01*
X566498Y136359D02*
Y137959D01*
X568098D01*
Y136359D01*
X566498D01*
Y138359D02*
Y139959D01*
X568098D01*
Y138359D01*
X566498D01*
Y140359D02*
Y141959D01*
X568098D01*
Y140359D01*
X566498D01*
Y142359D02*
Y143959D01*
X568098D01*
Y142359D01*
X566498D01*
Y144359D02*
Y145959D01*
X568098D01*
Y144359D01*
X566498D01*
X558302Y166173D02*
Y167773D01*
X559902D01*
Y166173D01*
X558302D01*
X587766Y182079D02*
Y183678D01*
X589366D01*
Y182079D01*
X587766D01*
X580888Y165304D02*
Y166904D01*
X582488D01*
Y165304D01*
X580888D01*
X547106Y163567D02*
Y165166D01*
X548706D01*
Y163567D01*
X547106D01*
X561454Y165941D02*
Y167541D01*
X563054D01*
Y165941D01*
X561454D01*
X554418Y166188D02*
Y167788D01*
X556018D01*
Y166188D01*
X554418D01*
X567200Y180700D02*
Y182300D01*
X568800D01*
Y180700D01*
X567200D01*
X569200Y178200D02*
Y179800D01*
X570800D01*
Y178200D01*
X569200D01*
X556632Y164103D02*
Y165703D01*
X558231D01*
Y164103D01*
X556632D01*
X562200Y156160D02*
Y157760D01*
X563800D01*
Y156160D01*
X562200D01*
X583200Y158700D02*
Y160300D01*
X584800D01*
Y158700D01*
X583200D01*
X581327Y152709D02*
Y154309D01*
X582928D01*
Y152709D01*
X581327D01*
X652200Y140700D02*
X652600Y141500D01*
X652200Y142300D01*
X653000Y141900D01*
X653800Y142300D01*
X653400Y141500D01*
X653800Y140700D01*
X653000Y141100D01*
X652200Y140700D01*
Y160700D02*
X652600Y161500D01*
X652200Y162300D01*
X653000Y161900D01*
X653800Y162300D01*
X653400Y161500D01*
X653800Y160700D01*
X653000Y161100D01*
X652200Y160700D01*
X629073Y146671D02*
X629473Y147471D01*
X629073Y148271D01*
X629873Y147871D01*
X630673Y148271D01*
X630273Y147471D01*
X630673Y146671D01*
X629873Y147071D01*
X629073Y146671D01*
X624348D02*
X624748Y147471D01*
X624348Y148271D01*
X625148Y147871D01*
X625948Y148271D01*
X625548Y147471D01*
X625948Y146671D01*
X625148Y147071D01*
X624348Y146671D01*
X618200Y147700D02*
X618600Y148500D01*
X618200Y149300D01*
X619000Y148900D01*
X619800Y149300D01*
X619400Y148500D01*
X619800Y147700D01*
X619000Y148100D01*
X618200Y147700D01*
X627200Y179200D02*
X627600Y180000D01*
X627200Y180800D01*
X628000Y180400D01*
X628800Y180800D01*
X628400Y180000D01*
X628800Y179200D01*
X628000Y179600D01*
X627200Y179200D01*
X579710Y157309D02*
Y158909D01*
X581310D01*
Y157309D01*
X579710D01*
Y145809D02*
Y147409D01*
X581310D01*
Y145809D01*
X579710D01*
X580210Y149109D02*
Y150709D01*
X581810D01*
Y149109D01*
X580210D01*
X543633Y167475D02*
Y169075D01*
X545233D01*
Y167475D01*
X543633D01*
X575710Y170309D02*
Y171909D01*
X577310D01*
Y170309D01*
X575710D01*
X635653Y195029D02*
Y196629D01*
X637253D01*
Y195029D01*
X635653D01*
X559700Y159700D02*
Y161300D01*
X561300D01*
Y159700D01*
X559700D01*
X578210Y170309D02*
Y171909D01*
X579810D01*
Y170309D01*
X578210D01*
X612210Y181809D02*
Y183409D01*
X613810D01*
Y181809D01*
X612210D01*
X614210Y164809D02*
Y166409D01*
X615810D01*
Y164809D01*
X614210D01*
X617710Y161309D02*
Y162909D01*
X619310D01*
Y161309D01*
X617710D01*
X610710D02*
Y162909D01*
X612310D01*
Y161309D01*
X610710D01*
Y168309D02*
Y169909D01*
X612310D01*
Y168309D01*
X610710D01*
Y164809D02*
Y166409D01*
X612310D01*
Y164809D01*
X610710D01*
X614210Y161309D02*
Y162909D01*
X615810D01*
Y161309D01*
X614210D01*
M02*
