G04*
G04 #@! TF.GenerationSoftware,Altium Limited,Altium Designer,22.10.1 (41)*
G04*
G04 Layer_Physical_Order=1*
G04 Layer_Color=255*
%FSLAX25Y25*%
%MOIN*%
G70*
G04*
G04 #@! TF.SameCoordinates,6EEB4584-1C63-4AE3-A79B-07B07B7A1057*
G04*
G04*
G04 #@! TF.FilePolarity,Positive*
G04*
G01*
G75*
%ADD11C,0.00600*%
%ADD14C,0.00800*%
%ADD19R,0.04724X0.02559*%
%ADD20R,0.02362X0.02362*%
G04:AMPARAMS|DCode=21|XSize=21.26mil|YSize=23.62mil|CornerRadius=5.53mil|HoleSize=0mil|Usage=FLASHONLY|Rotation=0.000|XOffset=0mil|YOffset=0mil|HoleType=Round|Shape=RoundedRectangle|*
%AMROUNDEDRECTD21*
21,1,0.02126,0.01257,0,0,0.0*
21,1,0.01021,0.02362,0,0,0.0*
1,1,0.01106,0.00510,-0.00628*
1,1,0.01106,-0.00510,-0.00628*
1,1,0.01106,-0.00510,0.00628*
1,1,0.01106,0.00510,0.00628*
%
%ADD21ROUNDEDRECTD21*%
%ADD22R,0.01575X0.01496*%
%ADD23R,0.02638X0.01575*%
%ADD24R,0.04134X0.03937*%
%ADD25R,0.02598X0.01575*%
%ADD26R,0.10984X0.02913*%
%ADD27R,0.03347X0.02461*%
G04:AMPARAMS|DCode=28|XSize=21.26mil|YSize=23.62mil|CornerRadius=5.53mil|HoleSize=0mil|Usage=FLASHONLY|Rotation=90.000|XOffset=0mil|YOffset=0mil|HoleType=Round|Shape=RoundedRectangle|*
%AMROUNDEDRECTD28*
21,1,0.02126,0.01257,0,0,90.0*
21,1,0.01021,0.02362,0,0,90.0*
1,1,0.01106,0.00628,0.00510*
1,1,0.01106,0.00628,-0.00510*
1,1,0.01106,-0.00628,-0.00510*
1,1,0.01106,-0.00628,0.00510*
%
%ADD28ROUNDEDRECTD28*%
%ADD29R,0.03200X0.03500*%
%ADD30R,0.01496X0.01575*%
%ADD31R,0.03500X0.03200*%
%ADD32R,0.01000X0.01400*%
%ADD33R,0.01400X0.01000*%
%ADD34R,0.02953X0.03347*%
%ADD35R,0.01900X0.05400*%
%ADD36R,0.04331X0.07480*%
%ADD37C,0.00835*%
%ADD38R,0.02100X0.07800*%
%ADD39R,0.03000X0.03300*%
%ADD40R,0.03300X0.03000*%
%ADD41C,0.05000*%
%ADD42C,0.02000*%
%ADD43C,0.01000*%
%ADD53R,0.12600X0.09500*%
%ADD61C,0.01500*%
%ADD62C,0.00400*%
%ADD63C,0.01800*%
%ADD64C,0.06102*%
%ADD65R,0.06102X0.06102*%
%ADD66C,0.01800*%
%ADD67C,0.01600*%
%ADD68C,0.00800*%
G36*
X667758Y131037D02*
X605859D01*
X605719Y131479D01*
X605719Y131537D01*
Y133187D01*
X608761D01*
X609210Y133276D01*
X609590Y133531D01*
X622161Y146101D01*
X622419Y146152D01*
X622882Y146462D01*
X623191Y146925D01*
X623300Y147471D01*
X623191Y148017D01*
X623045Y148236D01*
Y151859D01*
X624107Y152921D01*
X625355D01*
Y154981D01*
X625355Y155296D01*
X625355Y155796D01*
Y157855D01*
X625355D01*
Y158040D01*
X625355D01*
Y160414D01*
X625846Y160436D01*
X629301D01*
X629791Y160414D01*
Y158040D01*
X629791D01*
Y157855D01*
X629791D01*
Y155481D01*
X633229D01*
Y155496D01*
X633838D01*
Y150595D01*
X631887Y148644D01*
X630439D01*
X630131Y148771D01*
X629614D01*
X629136Y148573D01*
X628770Y148207D01*
X628573Y147730D01*
Y147213D01*
X628770Y146735D01*
X629136Y146369D01*
X629614Y146171D01*
X630131D01*
X630439Y146299D01*
X632373D01*
X632821Y146388D01*
X633202Y146642D01*
X635840Y149280D01*
X636094Y149660D01*
X636183Y150109D01*
Y156109D01*
X636094Y156558D01*
X635840Y156938D01*
X635280Y157497D01*
X634900Y157751D01*
X634451Y157841D01*
X633647D01*
X633229Y158040D01*
Y160414D01*
X632683D01*
Y160609D01*
X632594Y161058D01*
X632339Y161438D01*
X631601Y162176D01*
X631809Y162676D01*
X633831D01*
X637704Y158803D01*
X638010Y158676D01*
X650480D01*
X650786Y158803D01*
X650913Y159109D01*
X650913Y162957D01*
X650880Y163036D01*
Y163357D01*
X650693D01*
X646634Y167415D01*
X646328Y167542D01*
X646092Y168006D01*
X646095Y168042D01*
X646511Y168320D01*
X646820Y168783D01*
X646929Y169329D01*
X646820Y169876D01*
X646511Y170339D01*
X646503Y170347D01*
X646040Y170656D01*
X645494Y170765D01*
X645494Y170765D01*
X643438D01*
X643165Y170819D01*
X641909D01*
X641636Y170765D01*
X639438D01*
X639165Y170819D01*
X637909D01*
X637640Y170766D01*
X636576D01*
Y171019D01*
X631052D01*
Y171019D01*
X630572Y171066D01*
X629938Y171700D01*
Y175018D01*
X630342Y175422D01*
X631052D01*
Y175140D01*
X636576D01*
Y175677D01*
X639251D01*
X639699Y175766D01*
X640080Y176020D01*
X642446Y178386D01*
X642700Y178767D01*
X642789Y179215D01*
Y182123D01*
X645375Y184709D01*
X645629Y185089D01*
X645718Y185538D01*
Y186239D01*
X646546D01*
Y190539D01*
X642546D01*
Y186239D01*
X642881D01*
X643088Y185739D01*
X641146Y183796D01*
X640469D01*
Y183796D01*
X638256D01*
X638256Y183796D01*
Y183796D01*
X637812Y183932D01*
X637618Y184282D01*
X637683Y184609D01*
Y186239D01*
X638475D01*
Y190539D01*
X634475D01*
Y186239D01*
X635338D01*
Y185095D01*
X634788Y184544D01*
X634533Y184164D01*
X634460Y183796D01*
X632981D01*
X631669Y185109D01*
X631876Y185609D01*
X632160D01*
Y189609D01*
X627860D01*
Y185609D01*
X628838D01*
Y185109D01*
X628927Y184660D01*
X629181Y184280D01*
X631681Y181780D01*
X632062Y181526D01*
X632256Y181487D01*
Y181421D01*
X634552D01*
Y181422D01*
X636765D01*
Y181436D01*
X638256D01*
Y181421D01*
X640444D01*
Y179701D01*
X638765Y178022D01*
X636576D01*
Y178499D01*
X631128D01*
X631069Y178796D01*
X630760Y179259D01*
X630760Y179259D01*
X629009Y181009D01*
X628546Y181319D01*
X628000Y181427D01*
X627454Y181319D01*
X626991Y181009D01*
X626681Y180546D01*
X626573Y180000D01*
X626681Y179454D01*
X626991Y178991D01*
X628124Y177858D01*
Y177241D01*
X627501Y176618D01*
X627192Y176155D01*
X627083Y175609D01*
X627083Y175609D01*
Y171109D01*
X627083Y171109D01*
X627192Y170563D01*
X627501Y170100D01*
X629241Y168359D01*
X629241Y168359D01*
X629704Y168050D01*
X629745Y168042D01*
X629696Y167542D01*
X629190D01*
X623816Y172915D01*
X623510Y173042D01*
X619385D01*
X619079Y172915D01*
X616749Y170585D01*
X616510Y170745D01*
X616139Y170819D01*
X614882D01*
X614510Y170745D01*
X614206Y170542D01*
X611010D01*
X610704Y170415D01*
X609204Y168915D01*
X609077Y168609D01*
Y161609D01*
X609204Y161303D01*
X611204Y159303D01*
X611510Y159176D01*
X618510Y159176D01*
X618817Y159303D01*
X622190Y162676D01*
X623212D01*
X623419Y162176D01*
X622807Y161564D01*
X622553Y161184D01*
X622464Y160735D01*
Y160414D01*
X621917D01*
Y158040D01*
X621917D01*
Y157855D01*
X621917D01*
Y155796D01*
X621917Y155481D01*
X621917Y154981D01*
Y154048D01*
X621043Y153174D01*
X620789Y152794D01*
X620700Y152345D01*
Y149927D01*
X619000D01*
X618454Y149819D01*
X617991Y149509D01*
X617681Y149046D01*
X617573Y148500D01*
X617681Y147954D01*
X617991Y147491D01*
X618454Y147181D01*
X619000Y147073D01*
X619163D01*
X619354Y146611D01*
X608276Y135532D01*
X605719D01*
Y137679D01*
X603019D01*
Y131537D01*
X603019Y131479D01*
X602878Y131037D01*
X600859D01*
X600718Y131479D01*
X600718Y131537D01*
Y137679D01*
X598019D01*
Y131537D01*
X598019Y131479D01*
X597878Y131037D01*
X595859D01*
X595718Y131479D01*
X595718Y131537D01*
Y137679D01*
X593018D01*
Y131537D01*
X593018Y131479D01*
X592878Y131037D01*
X590859D01*
X590719Y131479D01*
X590719Y131537D01*
Y137679D01*
X589660D01*
Y143630D01*
X589470Y144089D01*
X584771Y148787D01*
X584312Y148977D01*
X582429D01*
X582130Y149477D01*
X582210Y149670D01*
Y150100D01*
X584777Y152666D01*
X584932Y152898D01*
X584986Y153171D01*
Y155311D01*
X587557Y157881D01*
X588019Y157690D01*
Y152479D01*
X590719D01*
Y158678D01*
X589007D01*
X588816Y159140D01*
X593954Y164278D01*
X595819D01*
Y172879D01*
X592918D01*
Y166479D01*
X592859Y166390D01*
X592805Y166117D01*
Y165148D01*
X590224Y162568D01*
X589724Y162775D01*
Y164278D01*
X590819D01*
Y172879D01*
X587919D01*
Y164278D01*
X588297D01*
Y162490D01*
X585662Y159856D01*
X585094Y159995D01*
X585017Y160180D01*
X584680Y160517D01*
X584239Y160700D01*
X583761D01*
X583731Y160687D01*
X583468Y160950D01*
X583009Y161141D01*
X579709D01*
X579458Y161036D01*
X579337Y161328D01*
X579111Y161554D01*
X579337Y161780D01*
X579461Y162080D01*
Y162405D01*
X579337Y162706D01*
X579111Y162932D01*
X579337Y163158D01*
X579461Y163458D01*
Y163783D01*
X579337Y164084D01*
X579107Y164314D01*
X578807Y164438D01*
X578543D01*
X578515Y164452D01*
X578331Y164623D01*
X578153Y164843D01*
X578184Y164999D01*
Y166853D01*
X578114Y167204D01*
X577915Y167502D01*
X577806Y167611D01*
Y167792D01*
X577816Y167803D01*
X577943Y168109D01*
Y169783D01*
X579010D01*
X579518Y169884D01*
X579948Y170172D01*
X580235Y170602D01*
X580336Y171109D01*
X580235Y171616D01*
X579948Y172046D01*
X579518Y172334D01*
X579010Y172434D01*
X577943D01*
Y181609D01*
X577816Y181915D01*
X576817Y182915D01*
X576510Y183042D01*
X573510D01*
X573204Y182915D01*
X572204Y181915D01*
X572077Y181609D01*
Y181517D01*
X572110Y181437D01*
Y181351D01*
X572122Y181323D01*
Y181018D01*
X572110Y180990D01*
Y180904D01*
X572077Y180825D01*
Y177788D01*
X568704Y174415D01*
X568577Y174109D01*
Y173109D01*
X568704Y172803D01*
X569193Y172314D01*
X569499Y172187D01*
X569968D01*
X569983Y172184D01*
X569998Y172187D01*
X570010D01*
X570022Y172192D01*
X570026Y172193D01*
X570067Y172176D01*
X572331D01*
X573077Y171430D01*
Y168609D01*
X573204Y168303D01*
X573423Y168084D01*
Y168009D01*
X573498D01*
X574704Y166803D01*
X575010Y166676D01*
X576177D01*
X576239Y166582D01*
X576349Y166473D01*
Y165916D01*
X575888D01*
X575537Y165847D01*
X575240Y165648D01*
X575037Y165628D01*
X574973Y165692D01*
X574673Y165816D01*
X574348D01*
X574047Y165692D01*
X573821Y165466D01*
X573595Y165692D01*
X573295Y165816D01*
X572970D01*
X572669Y165692D01*
X572443Y165466D01*
X572217Y165692D01*
X571917Y165816D01*
X571592D01*
X571291Y165692D01*
X571066Y165466D01*
X570840Y165692D01*
X570539Y165816D01*
X570214D01*
X569913Y165692D01*
X569688Y165466D01*
X569461Y165692D01*
X569161Y165816D01*
X568836D01*
X568770Y165789D01*
X568273Y166078D01*
X568270Y166082D01*
Y169227D01*
X568080Y169686D01*
X567082Y170684D01*
X567110Y170827D01*
Y171847D01*
X567036Y172219D01*
X566826Y172534D01*
X566510Y172745D01*
X566139Y172819D01*
X564882D01*
X564510Y172745D01*
X564195Y172534D01*
X563984Y172219D01*
X563911Y171847D01*
Y171758D01*
X563279D01*
X562497Y172541D01*
Y176249D01*
X557366D01*
Y167969D01*
X561078D01*
X561285Y167469D01*
X561237Y167421D01*
X561054Y166980D01*
Y166502D01*
X561111Y166365D01*
X560780Y165865D01*
X560649D01*
Y163664D01*
X560423Y163258D01*
X557904D01*
X557805Y163758D01*
X558111Y163885D01*
X558449Y164223D01*
X558632Y164664D01*
Y165141D01*
X558449Y165582D01*
X558111Y165920D01*
X557670Y166103D01*
X557193D01*
X556752Y165920D01*
X556414Y165582D01*
X556231Y165141D01*
Y164664D01*
X556414Y164223D01*
X556752Y163885D01*
X557058Y163758D01*
X556959Y163258D01*
X553477D01*
Y164096D01*
X549568D01*
X549367Y164110D01*
X549106Y164484D01*
Y164605D01*
X548923Y165046D01*
X548585Y165384D01*
X548144Y165567D01*
X547667D01*
X547226Y165384D01*
X546888Y165046D01*
X546706Y164605D01*
Y164128D01*
X546888Y163687D01*
X547226Y163349D01*
X547667Y163166D01*
X548144D01*
X548175Y163179D01*
X549228Y162125D01*
X549377Y162064D01*
Y160296D01*
X553477D01*
Y161960D01*
X559609D01*
X559718Y161732D01*
X559762Y161460D01*
X559483Y161180D01*
X559300Y160739D01*
Y160261D01*
X559395Y160033D01*
X558454Y159092D01*
X557367D01*
Y157245D01*
X557042Y156880D01*
X556901Y156880D01*
X554668D01*
Y154584D01*
X557042D01*
Y154584D01*
X557367D01*
Y154584D01*
X559741D01*
Y155071D01*
X560638D01*
X560955Y154753D01*
X561415Y154563D01*
X561774D01*
X561981Y154063D01*
X560782Y152864D01*
X558739D01*
X558690Y153109D01*
X558479Y153424D01*
X558164Y153635D01*
X557792Y153709D01*
X556772D01*
X556400Y153635D01*
X556085Y153424D01*
X555874Y153109D01*
X555800Y152737D01*
Y151481D01*
X555874Y151109D01*
X555898Y151074D01*
Y150847D01*
X554233Y149182D01*
X551634D01*
Y145036D01*
X555387D01*
Y148029D01*
X557290Y149932D01*
X557290Y149932D01*
X557467Y150197D01*
X557529Y150509D01*
X557750Y150509D01*
X557792Y150509D01*
X558164Y150583D01*
X558479Y150794D01*
X558690Y151109D01*
X558714Y151233D01*
X561120D01*
X561120Y151233D01*
X561432Y151295D01*
X561697Y151472D01*
X563385Y153159D01*
X564944D01*
X565151Y152659D01*
X560170Y147678D01*
X559993Y147413D01*
X559931Y147101D01*
X559931Y147101D01*
Y145517D01*
X558282Y143867D01*
X555768D01*
Y139721D01*
X556466D01*
Y138148D01*
X556400Y138135D01*
X556085Y137924D01*
X555874Y137609D01*
X555800Y137237D01*
Y135981D01*
X555874Y135609D01*
X556085Y135294D01*
X556400Y135083D01*
X556772Y135009D01*
X557792D01*
X558164Y135083D01*
X558479Y135294D01*
X558690Y135609D01*
X558764Y135981D01*
Y137237D01*
X558690Y137609D01*
X558479Y137924D01*
X558164Y138135D01*
X558098Y138148D01*
Y139721D01*
X559521D01*
Y142792D01*
X559522Y142801D01*
X561323Y144602D01*
X561500Y144867D01*
X561562Y145179D01*
X561562Y145179D01*
Y146763D01*
X566702Y151903D01*
X566706Y151904D01*
X566935Y152134D01*
X567060Y152435D01*
Y152760D01*
X566935Y153060D01*
X566710Y153286D01*
X566935Y153512D01*
X567060Y153813D01*
Y154138D01*
X567049Y154164D01*
X567432Y154547D01*
X567458Y154536D01*
X567783D01*
X567809Y154547D01*
X568192Y154164D01*
X568181Y154138D01*
Y153813D01*
X568306Y153512D01*
X568536Y153282D01*
X568836Y153158D01*
X569161D01*
X569461Y153282D01*
X569691Y153512D01*
X569816Y153813D01*
Y154138D01*
X569691Y154438D01*
X569461Y154668D01*
X569161Y154792D01*
X568836D01*
X568810Y154781D01*
X568427Y155164D01*
X568438Y155191D01*
Y155516D01*
X568314Y155816D01*
X568087Y156042D01*
X568314Y156268D01*
X568438Y156568D01*
Y156894D01*
X568427Y156920D01*
X568810Y157302D01*
X568836Y157292D01*
X569161D01*
X569461Y157416D01*
X569691Y157646D01*
X569816Y157946D01*
Y158272D01*
X569691Y158572D01*
X569465Y158798D01*
X569691Y159024D01*
X569816Y159324D01*
Y159650D01*
X569691Y159950D01*
X569465Y160176D01*
X569691Y160402D01*
X569816Y160702D01*
Y161027D01*
X569691Y161328D01*
X569465Y161554D01*
X569691Y161780D01*
X569816Y162080D01*
Y162405D01*
X569805Y162432D01*
X570188Y162814D01*
X570214Y162803D01*
X570539D01*
X570840Y162928D01*
X571066Y163154D01*
X571291Y162928D01*
X571592Y162803D01*
X571917D01*
X572217Y162928D01*
X572443Y163154D01*
X572669Y162928D01*
X572970Y162803D01*
X573295D01*
X573595Y162928D01*
X573821Y163154D01*
X574047Y162928D01*
X574348Y162803D01*
X574673D01*
X574699Y162814D01*
X575082Y162432D01*
X575071Y162405D01*
Y162080D01*
X575195Y161780D01*
X575421Y161554D01*
X575195Y161328D01*
X575071Y161027D01*
Y160702D01*
X575195Y160402D01*
X575421Y160176D01*
X575195Y159950D01*
X575071Y159650D01*
Y159324D01*
X575195Y159024D01*
X575421Y158798D01*
X575195Y158572D01*
X575071Y158272D01*
Y157946D01*
X575195Y157646D01*
X575421Y157420D01*
X575195Y157194D01*
X575071Y156894D01*
Y156568D01*
X575082Y156542D01*
X574699Y156159D01*
X574673Y156170D01*
X574348D01*
X574047Y156046D01*
X573821Y155820D01*
X573595Y156046D01*
X573295Y156170D01*
X572970D01*
X572669Y156046D01*
X572443Y155820D01*
X572217Y156046D01*
X571917Y156170D01*
X571592D01*
X571291Y156046D01*
X571062Y155816D01*
X570937Y155516D01*
Y155191D01*
X571062Y154890D01*
X571288Y154664D01*
X571062Y154438D01*
X570937Y154138D01*
Y153813D01*
X571062Y153512D01*
X571126Y153448D01*
X571106Y153246D01*
X570907Y152948D01*
X570837Y152597D01*
Y149806D01*
X570746Y149788D01*
X570430Y149577D01*
X570220Y149262D01*
X570146Y148890D01*
Y147634D01*
X570200Y147361D01*
Y145428D01*
X569394D01*
Y142167D01*
X571214D01*
X571447Y142121D01*
X571679Y142167D01*
X573541D01*
Y145428D01*
X573055D01*
Y147361D01*
X573109Y147634D01*
Y148890D01*
X573035Y149262D01*
X572825Y149577D01*
X572672Y149679D01*
Y151581D01*
X572970Y151780D01*
X573295D01*
X573595Y151904D01*
X573821Y152130D01*
X574047Y151904D01*
X574348Y151780D01*
X574348D01*
X575008Y151121D01*
X575467Y150930D01*
X576735D01*
X577169Y150496D01*
X576962Y149996D01*
X576764D01*
X576323Y149814D01*
X575985Y149476D01*
X575802Y149035D01*
Y148558D01*
X575985Y148117D01*
X576323Y147779D01*
X576764Y147596D01*
X577241D01*
X577682Y147779D01*
X578020Y148117D01*
X578202Y148558D01*
Y148756D01*
X578702Y148963D01*
X579608Y148057D01*
X579757Y147769D01*
X579609Y147405D01*
X579493Y147289D01*
X579310Y146848D01*
Y146370D01*
X579493Y145929D01*
X579831Y145592D01*
X580272Y145409D01*
X580749D01*
X581190Y145592D01*
X581472Y145873D01*
X581910Y146021D01*
X581910Y146021D01*
Y146021D01*
X581910Y146021D01*
X584110D01*
Y146958D01*
X584572Y147149D01*
X588361Y143361D01*
Y137679D01*
X588019D01*
Y131537D01*
X588019Y131479D01*
X587878Y131037D01*
X573346D01*
X572909Y131372D01*
X572779Y131426D01*
Y132907D01*
X572833Y133179D01*
Y134436D01*
X572779Y134709D01*
Y136950D01*
X573541D01*
Y140211D01*
X569394D01*
Y136950D01*
X569924D01*
Y134709D01*
X569870Y134436D01*
Y133179D01*
X569924Y132907D01*
Y131325D01*
X569548Y131037D01*
X524816D01*
Y215694D01*
X667758D01*
Y131037D01*
D02*
G37*
G36*
X577510Y181609D02*
Y173109D01*
Y171109D01*
Y169609D01*
Y168109D01*
X576510Y167109D01*
X575010D01*
X573510Y168609D01*
Y171609D01*
X572510Y172609D01*
X570067D01*
X570010Y172620D01*
X569499D01*
X569010Y173109D01*
Y174109D01*
X572510Y177609D01*
Y180825D01*
X572555Y180932D01*
Y181410D01*
X572510Y181517D01*
Y181609D01*
X573510Y182609D01*
X576510D01*
X577510Y181609D01*
D02*
G37*
G36*
X629010Y167109D02*
X646328D01*
X650480Y162957D01*
X650480Y159109D01*
X638010D01*
X634010Y163109D01*
X622010D01*
X618510Y159609D01*
X611510Y159609D01*
X609510Y161609D01*
Y168609D01*
X611010Y170109D01*
X616885D01*
X619385Y172609D01*
X623510D01*
X629010Y167109D01*
D02*
G37*
%LPC*%
G36*
X593735Y212784D02*
X592826D01*
X591949Y212549D01*
X591162Y212094D01*
X590519Y211452D01*
X590065Y210665D01*
X589829Y209787D01*
Y208879D01*
X590065Y208001D01*
X590519Y207214D01*
X591162Y206571D01*
X591949Y206117D01*
X592826Y205882D01*
X593735D01*
X594613Y206117D01*
X595400Y206571D01*
X596042Y207214D01*
X596497Y208001D01*
X596732Y208879D01*
Y209787D01*
X596497Y210665D01*
X596042Y211452D01*
X595400Y212094D01*
X594613Y212549D01*
X593735Y212784D01*
D02*
G37*
G36*
X583735D02*
X582826D01*
X581949Y212549D01*
X581162Y212094D01*
X580519Y211452D01*
X580065Y210665D01*
X579830Y209787D01*
Y208879D01*
X580065Y208001D01*
X580519Y207214D01*
X581162Y206571D01*
X581949Y206117D01*
X582826Y205882D01*
X583735D01*
X584613Y206117D01*
X585400Y206571D01*
X586042Y207214D01*
X586497Y208001D01*
X586732Y208879D01*
Y209787D01*
X586497Y210665D01*
X586042Y211452D01*
X585400Y212094D01*
X584613Y212549D01*
X583735Y212784D01*
D02*
G37*
G36*
X573735D02*
X572826D01*
X571949Y212549D01*
X571162Y212094D01*
X570519Y211452D01*
X570065Y210665D01*
X569830Y209787D01*
Y208879D01*
X570065Y208001D01*
X570519Y207214D01*
X571162Y206571D01*
X571949Y206117D01*
X572826Y205882D01*
X573735D01*
X574613Y206117D01*
X575400Y206571D01*
X576042Y207214D01*
X576497Y208001D01*
X576732Y208879D01*
Y209787D01*
X576497Y210665D01*
X576042Y211452D01*
X575400Y212094D01*
X574613Y212549D01*
X573735Y212784D01*
D02*
G37*
G36*
X563735D02*
X562826D01*
X561949Y212549D01*
X561162Y212094D01*
X560519Y211452D01*
X560065Y210665D01*
X559830Y209787D01*
Y208879D01*
X560065Y208001D01*
X560519Y207214D01*
X561162Y206571D01*
X561949Y206117D01*
X562826Y205882D01*
X563735D01*
X564613Y206117D01*
X565400Y206571D01*
X566042Y207214D01*
X566497Y208001D01*
X566732Y208879D01*
Y209787D01*
X566497Y210665D01*
X566042Y211452D01*
X565400Y212094D01*
X564613Y212549D01*
X563735Y212784D01*
D02*
G37*
G36*
X553735D02*
X552826D01*
X551949Y212549D01*
X551162Y212094D01*
X550519Y211452D01*
X550065Y210665D01*
X549829Y209787D01*
Y208879D01*
X550065Y208001D01*
X550519Y207214D01*
X551162Y206571D01*
X551949Y206117D01*
X552826Y205882D01*
X553735D01*
X554613Y206117D01*
X555400Y206571D01*
X556042Y207214D01*
X556497Y208001D01*
X556732Y208879D01*
Y209787D01*
X556497Y210665D01*
X556042Y211452D01*
X555400Y212094D01*
X554613Y212549D01*
X553735Y212784D01*
D02*
G37*
G36*
X543735D02*
X542826D01*
X541949Y212549D01*
X541162Y212094D01*
X540519Y211452D01*
X540065Y210665D01*
X539829Y209787D01*
Y208879D01*
X540065Y208001D01*
X540519Y207214D01*
X541162Y206571D01*
X541949Y206117D01*
X542826Y205882D01*
X543735D01*
X544613Y206117D01*
X545400Y206571D01*
X546042Y207214D01*
X546497Y208001D01*
X546732Y208879D01*
Y209787D01*
X546497Y210665D01*
X546042Y211452D01*
X545400Y212094D01*
X544613Y212549D01*
X543735Y212784D01*
D02*
G37*
G36*
X533735D02*
X532826D01*
X531949Y212549D01*
X531162Y212094D01*
X530519Y211452D01*
X530065Y210665D01*
X529830Y209787D01*
Y208879D01*
X530065Y208001D01*
X530519Y207214D01*
X531162Y206571D01*
X531949Y206117D01*
X532826Y205882D01*
X533735D01*
X534613Y206117D01*
X535400Y206571D01*
X536042Y207214D01*
X536497Y208001D01*
X536732Y208879D01*
Y209787D01*
X536497Y210665D01*
X536042Y211452D01*
X535400Y212094D01*
X534613Y212549D01*
X533735Y212784D01*
D02*
G37*
G36*
X593735Y202784D02*
X592826D01*
X591949Y202549D01*
X591162Y202095D01*
X590519Y201452D01*
X590065Y200665D01*
X589829Y199787D01*
Y198879D01*
X590065Y198001D01*
X590519Y197214D01*
X591162Y196571D01*
X591949Y196117D01*
X592826Y195882D01*
X593735D01*
X594613Y196117D01*
X595400Y196571D01*
X596042Y197214D01*
X596497Y198001D01*
X596732Y198879D01*
Y199787D01*
X596994Y200129D01*
X602485D01*
Y198906D01*
X605647D01*
Y202068D01*
X602485D01*
Y201556D01*
X596333D01*
X596060Y201502D01*
X596020Y201475D01*
X595400Y202095D01*
X594613Y202549D01*
X593735Y202784D01*
D02*
G37*
G36*
X642510Y197979D02*
X638510D01*
Y197002D01*
X636758D01*
X636692Y197029D01*
X636215D01*
X635774Y196847D01*
X635436Y196509D01*
X635253Y196068D01*
Y195591D01*
X635436Y195150D01*
X635774Y194812D01*
X636215Y194629D01*
X636692D01*
X636758Y194657D01*
X638510D01*
Y193679D01*
X642510D01*
Y197979D01*
D02*
G37*
G36*
X583735Y202784D02*
X582826D01*
X581949Y202549D01*
X581162Y202095D01*
X580519Y201452D01*
X580065Y200665D01*
X579830Y199787D01*
Y198879D01*
X580065Y198001D01*
X580519Y197214D01*
X581162Y196571D01*
X581949Y196117D01*
X582567Y195951D01*
Y193448D01*
X581453D01*
Y191283D01*
X580988Y191176D01*
X580953Y191175D01*
X580622Y191507D01*
X580181Y191689D01*
X579703D01*
X579262Y191507D01*
X578925Y191169D01*
X578742Y190728D01*
Y190251D01*
X578925Y189810D01*
X579262Y189472D01*
X579416Y189408D01*
X579460Y189189D01*
X579614Y188957D01*
X580800Y187771D01*
X581032Y187617D01*
X581305Y187562D01*
X581453D01*
Y186152D01*
X581454D01*
X581583Y185800D01*
X581596Y185652D01*
X581289Y185345D01*
X581106Y184904D01*
Y184426D01*
X581289Y183985D01*
X581626Y183648D01*
X582067Y183465D01*
X582545D01*
X582986Y183648D01*
X583221Y183883D01*
X584497D01*
X584770Y183937D01*
X585002Y184092D01*
X587090Y186180D01*
X587245Y186412D01*
X587299Y186685D01*
Y191113D01*
X588969Y192783D01*
X594576D01*
X594849Y192838D01*
X595080Y192992D01*
X597571Y195483D01*
X602485D01*
Y194772D01*
X605647D01*
Y197934D01*
X602485D01*
Y196910D01*
X597275D01*
X597002Y196856D01*
X596770Y196701D01*
X594280Y194211D01*
X588673D01*
X588400Y194156D01*
X588169Y194002D01*
X586081Y191913D01*
X585926Y191682D01*
X585872Y191409D01*
Y186980D01*
X585115Y186224D01*
X584616Y186432D01*
X584616Y186526D01*
X584616Y186526D01*
X584616Y186536D01*
Y189314D01*
X581453D01*
X581453Y189314D01*
Y189314D01*
X581236Y189436D01*
X581037Y189625D01*
X581155Y190102D01*
X581432Y190273D01*
X581604Y190286D01*
X584616D01*
Y193448D01*
X583994D01*
Y195951D01*
X584613Y196117D01*
X585400Y196571D01*
X586042Y197214D01*
X586497Y198001D01*
X586732Y198879D01*
Y199787D01*
X586497Y200665D01*
X586042Y201452D01*
X585400Y202095D01*
X584613Y202549D01*
X583735Y202784D01*
D02*
G37*
G36*
X599728Y194595D02*
X599251D01*
X598810Y194413D01*
X598472Y194075D01*
X598289Y193634D01*
Y193157D01*
X598472Y192716D01*
X598810Y192378D01*
X599251Y192195D01*
X599728D01*
X600169Y192378D01*
X600507Y192716D01*
X600689Y193157D01*
Y193634D01*
X600507Y194075D01*
X600169Y194413D01*
X599728Y194595D01*
D02*
G37*
G36*
X573735Y202784D02*
X572826D01*
X571949Y202549D01*
X571162Y202095D01*
X570519Y201452D01*
X570065Y200665D01*
X569830Y199787D01*
Y198879D01*
X570065Y198001D01*
X570519Y197214D01*
X571162Y196571D01*
X571949Y196117D01*
X572331Y196014D01*
Y193448D01*
X571464D01*
Y190286D01*
X574626D01*
Y193448D01*
X573759D01*
Y195888D01*
X574613Y196117D01*
X575400Y196571D01*
X576042Y197214D01*
X576497Y198001D01*
X576732Y198879D01*
Y199787D01*
X576497Y200665D01*
X576042Y201452D01*
X575400Y202095D01*
X574613Y202549D01*
X573735Y202784D01*
D02*
G37*
G36*
X536732D02*
X529830D01*
Y195882D01*
X532614D01*
Y193448D01*
X531746D01*
Y190286D01*
X534909D01*
Y193448D01*
X534041D01*
Y195882D01*
X536732D01*
Y202784D01*
D02*
G37*
G36*
X553735D02*
X552826D01*
X551949Y202549D01*
X551162Y202095D01*
X550519Y201452D01*
X550065Y200665D01*
X549829Y199787D01*
Y198879D01*
X550065Y198001D01*
X550519Y197214D01*
X551162Y196571D01*
X551949Y196117D01*
X552567Y195951D01*
Y193436D01*
X551690D01*
Y190274D01*
X554852D01*
Y193436D01*
X553994D01*
Y195951D01*
X554613Y196117D01*
X555400Y196571D01*
X556042Y197214D01*
X556497Y198001D01*
X556732Y198879D01*
Y199787D01*
X556497Y200665D01*
X556042Y201452D01*
X555400Y202095D01*
X554613Y202549D01*
X553735Y202784D01*
D02*
G37*
G36*
X543735D02*
X542826D01*
X541949Y202549D01*
X541162Y202095D01*
X540519Y201452D01*
X540065Y200665D01*
X539829Y199787D01*
Y198879D01*
X540065Y198001D01*
X540519Y197214D01*
X541162Y196571D01*
X541949Y196117D01*
X542826Y195882D01*
X542868D01*
Y193331D01*
X542031D01*
Y190168D01*
X545194D01*
Y193331D01*
X544296D01*
Y196032D01*
X544613Y196117D01*
X545400Y196571D01*
X546042Y197214D01*
X546497Y198001D01*
X546732Y198879D01*
Y199787D01*
X546497Y200665D01*
X546042Y201452D01*
X545400Y202095D01*
X544613Y202549D01*
X543735Y202784D01*
D02*
G37*
G36*
X563735D02*
X562826D01*
X561949Y202549D01*
X561162Y202095D01*
X560519Y201452D01*
X560065Y200665D01*
X559830Y199787D01*
Y198879D01*
X560065Y198001D01*
X560519Y197214D01*
X561162Y196571D01*
X561949Y196117D01*
X562567Y195951D01*
Y193545D01*
X561769D01*
Y190383D01*
X564830Y190383D01*
X564932Y190383D01*
X565307Y190151D01*
X565330Y189912D01*
X565417Y189700D01*
X565512Y189471D01*
X565850Y189133D01*
X566291Y188951D01*
X566768D01*
X567209Y189133D01*
X567547Y189471D01*
X567730Y189912D01*
Y190389D01*
X567547Y190830D01*
X567209Y191168D01*
X566768Y191351D01*
X566291D01*
X565850Y191168D01*
X565512Y190830D01*
X565432Y190636D01*
X564932Y190735D01*
X564932Y190883D01*
Y193545D01*
X563994D01*
Y195951D01*
X564613Y196117D01*
X565400Y196571D01*
X566042Y197214D01*
X566497Y198001D01*
X566732Y198879D01*
Y199787D01*
X566497Y200665D01*
X566042Y201452D01*
X565400Y202095D01*
X564613Y202549D01*
X563735Y202784D01*
D02*
G37*
G36*
X574626Y189314D02*
X571464D01*
Y188416D01*
X571315D01*
X571042Y188362D01*
X570811Y188207D01*
X570044Y187440D01*
X569614D01*
X569173Y187257D01*
X568836Y186920D01*
X568653Y186478D01*
Y186001D01*
X568836Y185560D01*
X569173Y185223D01*
X569614Y185040D01*
X570092D01*
X570533Y185223D01*
X570870Y185560D01*
X571034Y185955D01*
X571464Y186152D01*
X571464Y186152D01*
X571464Y186152D01*
X574462Y186152D01*
X574705Y186118D01*
X575051Y185970D01*
X575272Y185749D01*
X575713Y185566D01*
X576191D01*
X576632Y185749D01*
X576969Y186086D01*
X577152Y186527D01*
Y187004D01*
X576969Y187446D01*
X576632Y187783D01*
X576191Y187966D01*
X575713D01*
X575272Y187783D01*
X575126Y187637D01*
X574626Y187844D01*
Y189314D01*
D02*
G37*
G36*
X564932Y189412D02*
X561769D01*
Y186249D01*
X562169D01*
X562376Y185749D01*
X562224Y185598D01*
X562041Y185157D01*
Y184679D01*
X562224Y184238D01*
X562562Y183900D01*
X563003Y183718D01*
X563480D01*
X563921Y183900D01*
X564259Y184238D01*
X564441Y184679D01*
Y185157D01*
X564259Y185598D01*
X564107Y185749D01*
X564314Y186249D01*
X564932D01*
Y189412D01*
D02*
G37*
G36*
X554852Y189303D02*
X551690D01*
Y186140D01*
X552359D01*
Y183488D01*
X551950Y183079D01*
X551856Y183117D01*
X551379D01*
X550938Y182935D01*
X550600Y182597D01*
X550418Y182156D01*
Y181679D01*
X550600Y181238D01*
X550938Y180900D01*
X551379Y180717D01*
X551856D01*
X552297Y180900D01*
X552635Y181238D01*
X552817Y181679D01*
Y181927D01*
X553578Y182688D01*
X553732Y182919D01*
X553787Y183192D01*
Y186140D01*
X554852D01*
Y189303D01*
D02*
G37*
G36*
X588805Y184079D02*
X588328D01*
X587887Y183896D01*
X587549Y183558D01*
X587366Y183117D01*
Y182640D01*
X587549Y182199D01*
X587887Y181861D01*
X588328Y181678D01*
X588805D01*
X589246Y181861D01*
X589584Y182199D01*
X589766Y182640D01*
Y183117D01*
X589584Y183558D01*
X589246Y183896D01*
X588805Y184079D01*
D02*
G37*
G36*
X624719Y193644D02*
X620419D01*
Y191303D01*
X619007Y189890D01*
X618012D01*
X618002Y189888D01*
X612617D01*
X612494Y189863D01*
X611323D01*
Y187567D01*
X611323D01*
Y185355D01*
X611338D01*
Y183109D01*
X611427Y182660D01*
X611681Y182280D01*
X611966Y181995D01*
X611993Y181929D01*
X612331Y181592D01*
X612772Y181409D01*
X613249D01*
X613690Y181592D01*
X614028Y181929D01*
X614210Y182370D01*
Y182848D01*
X614028Y183289D01*
X613690Y183626D01*
X613683Y183629D01*
Y185355D01*
X613698D01*
Y187543D01*
X618010D01*
X618020Y187545D01*
X619492D01*
X619941Y187634D01*
X620321Y187888D01*
X622078Y189644D01*
X624719D01*
Y193644D01*
D02*
G37*
G36*
X545194Y189197D02*
X542031D01*
Y186034D01*
X542818D01*
Y183533D01*
X542514Y183117D01*
X542371Y183117D01*
X542037D01*
X541596Y182935D01*
X541258Y182597D01*
X541076Y182156D01*
Y181679D01*
X541258Y181238D01*
X541596Y180900D01*
X542037Y180717D01*
X542514D01*
X542955Y180900D01*
X543126Y181071D01*
X543445Y181184D01*
X543765Y181071D01*
X543936Y180900D01*
X544377Y180717D01*
X544854D01*
X545295Y180900D01*
X545633Y181238D01*
X545815Y181679D01*
Y182156D01*
X545633Y182597D01*
X545295Y182935D01*
X544854Y183117D01*
X544425D01*
X544246Y183296D01*
Y186034D01*
X545194D01*
Y189197D01*
D02*
G37*
G36*
X534909Y189314D02*
X531746D01*
Y186152D01*
X532614D01*
Y183716D01*
X532015Y183117D01*
X531586D01*
X531145Y182935D01*
X530807Y182597D01*
X530625Y182156D01*
Y181679D01*
X530807Y181238D01*
X531145Y180900D01*
X531586Y180717D01*
X532063D01*
X532504Y180900D01*
X532842Y181237D01*
X533349D01*
X533687Y180900D01*
X534128Y180717D01*
X534605D01*
X535046Y180900D01*
X535384Y181238D01*
X535567Y181679D01*
Y182156D01*
X535384Y182597D01*
X535046Y182935D01*
X534605Y183117D01*
X534491D01*
X534075Y183397D01*
X534041Y183579D01*
Y186152D01*
X534909D01*
Y189314D01*
D02*
G37*
G36*
X568239Y182700D02*
X567761D01*
X567320Y182517D01*
X566983Y182180D01*
X566800Y181739D01*
Y181261D01*
X566983Y180820D01*
X567320Y180483D01*
X567761Y180300D01*
X568239D01*
X568680Y180483D01*
X569017Y180820D01*
X569200Y181261D01*
Y181739D01*
X569017Y182180D01*
X568680Y182517D01*
X568239Y182700D01*
D02*
G37*
G36*
X570239Y180200D02*
X569761D01*
X569320Y180017D01*
X568983Y179680D01*
X568800Y179239D01*
Y178761D01*
X568983Y178320D01*
X569320Y177983D01*
X569761Y177800D01*
X570239D01*
X570680Y177983D01*
X571017Y178320D01*
X571200Y178761D01*
Y179239D01*
X571017Y179680D01*
X570680Y180017D01*
X570239Y180200D01*
D02*
G37*
G36*
X625553Y178499D02*
X620028D01*
Y175140D01*
X625553D01*
Y178499D01*
D02*
G37*
G36*
X552654Y176249D02*
X547524D01*
Y172041D01*
X546970Y171487D01*
X546110D01*
Y171847D01*
X546036Y172219D01*
X545826Y172534D01*
X545510Y172745D01*
X545139Y172819D01*
X543882D01*
X543510Y172745D01*
X543195Y172534D01*
X542984Y172219D01*
X542911Y171847D01*
Y170827D01*
X542984Y170455D01*
X543195Y170140D01*
X543510Y169930D01*
X543861Y169860D01*
Y169337D01*
X543753Y169292D01*
X543415Y168954D01*
X543233Y168513D01*
Y168036D01*
X543415Y167595D01*
X543753Y167257D01*
X544194Y167075D01*
X544671D01*
X545113Y167257D01*
X545450Y167595D01*
X545633Y168036D01*
Y168513D01*
X545450Y168954D01*
X545160Y169245D01*
Y169860D01*
X545510Y169930D01*
X545826Y170140D01*
X545857Y170188D01*
X547239D01*
X547524Y169997D01*
Y167969D01*
X552654D01*
Y176249D01*
D02*
G37*
G36*
X555456Y168188D02*
X554979D01*
X554538Y168006D01*
X554201Y167668D01*
X554018Y167227D01*
Y166750D01*
X554201Y166308D01*
X554538Y165971D01*
X554979Y165788D01*
X555456D01*
X555898Y165971D01*
X556235Y166308D01*
X556418Y166750D01*
Y167227D01*
X556235Y167668D01*
X555898Y168006D01*
X555456Y168188D01*
D02*
G37*
G36*
X581926Y167304D02*
X581449D01*
X581008Y167122D01*
X580670Y166784D01*
X580488Y166343D01*
Y165866D01*
X580670Y165425D01*
X581008Y165087D01*
X581449Y164904D01*
X581926D01*
X582367Y165087D01*
X582705Y165425D01*
X582888Y165866D01*
Y166343D01*
X582705Y166784D01*
X582367Y167122D01*
X581926Y167304D01*
D02*
G37*
G36*
X666904Y163357D02*
X655120D01*
Y162214D01*
X654111D01*
X654102Y162236D01*
X653736Y162602D01*
X653259Y162800D01*
X652741D01*
X652264Y162602D01*
X651898Y162236D01*
X651700Y161759D01*
Y161241D01*
X651898Y160764D01*
X652264Y160398D01*
X652741Y160200D01*
X653259D01*
X653736Y160398D01*
X654102Y160764D01*
X654111Y160786D01*
X655120D01*
Y159643D01*
X666904D01*
Y163357D01*
D02*
G37*
G36*
X605819Y172879D02*
X602918D01*
Y164278D01*
X603491D01*
Y163651D01*
X603258Y163604D01*
X602943Y163394D01*
X602732Y163079D01*
X602659Y162707D01*
Y161450D01*
X602732Y161078D01*
X602943Y160763D01*
X603258Y160553D01*
X603630Y160479D01*
X603719D01*
Y158678D01*
X603019D01*
Y154258D01*
X600718D01*
Y158678D01*
X598019D01*
Y152479D01*
X600718D01*
Y152960D01*
X603019D01*
Y152479D01*
X605719D01*
Y158678D01*
X605018D01*
Y160552D01*
X605022Y160553D01*
X605337Y160763D01*
X605548Y161078D01*
X605622Y161450D01*
Y162707D01*
X605548Y163079D01*
X605337Y163394D01*
X605022Y163604D01*
X604790Y163651D01*
Y164278D01*
X605819D01*
Y172879D01*
D02*
G37*
G36*
X666904Y153357D02*
X655120D01*
Y152214D01*
X654111D01*
X654102Y152236D01*
X653736Y152602D01*
X653259Y152800D01*
X652741D01*
X652264Y152602D01*
X651898Y152236D01*
X651700Y151759D01*
Y151241D01*
X651898Y150764D01*
X652264Y150398D01*
X652741Y150200D01*
X653259D01*
X653736Y150398D01*
X654102Y150764D01*
X654111Y150786D01*
X655120D01*
Y149643D01*
X666904D01*
Y153357D01*
D02*
G37*
G36*
X650880Y148357D02*
X639096D01*
Y147781D01*
X638330D01*
X638022Y147908D01*
X637505D01*
X637027Y147710D01*
X636661Y147344D01*
X636463Y146867D01*
Y146349D01*
X636661Y145872D01*
X637027Y145506D01*
X637505Y145308D01*
X638022D01*
X638330Y145436D01*
X639096D01*
Y144643D01*
X650880D01*
Y148357D01*
D02*
G37*
G36*
X625407Y148771D02*
X624890D01*
X624412Y148573D01*
X624046Y148207D01*
X623848Y147730D01*
Y147213D01*
X624046Y146735D01*
X624412Y146369D01*
X624890Y146171D01*
X625407D01*
X625885Y146369D01*
X626250Y146735D01*
X626448Y147213D01*
Y147730D01*
X626250Y148207D01*
X625885Y148573D01*
X625407Y148771D01*
D02*
G37*
G36*
X666904Y143357D02*
X655120D01*
Y142214D01*
X654111D01*
X654102Y142236D01*
X653736Y142602D01*
X653259Y142800D01*
X652741D01*
X652264Y142602D01*
X651898Y142236D01*
X651700Y141759D01*
Y141241D01*
X651898Y140764D01*
X652264Y140398D01*
X652741Y140200D01*
X653259D01*
X653736Y140398D01*
X654102Y140764D01*
X654111Y140786D01*
X655120D01*
Y139643D01*
X666904D01*
Y143357D01*
D02*
G37*
%LPD*%
D11*
X653000Y151500D02*
X658440D01*
X543532Y187535D02*
X543613Y187616D01*
X543532Y183000D02*
X544615Y181917D01*
X543532Y183000D02*
Y187535D01*
X582491Y188276D02*
X583034Y187733D01*
X580119Y189462D02*
X581305Y188276D01*
X582491D01*
X579942Y190489D02*
X580119Y190312D01*
Y189462D02*
Y190312D01*
X551617Y181917D02*
X551798D01*
X553073Y187524D02*
X553271Y187721D01*
X551798Y181917D02*
X553073Y183192D01*
Y187524D01*
X531825Y181917D02*
X533328Y183420D01*
X584272Y155606D02*
X593518Y164853D01*
X581010Y149909D02*
X584272Y153171D01*
Y155606D01*
X588673Y193497D02*
X594576D01*
X597275Y196196D02*
X603909D01*
X594576Y193497D02*
X597275Y196196D01*
X603909D02*
X604066Y196353D01*
X596333Y200842D02*
X603710D01*
X593281Y199333D02*
X594824D01*
X603710Y200842D02*
X604066Y200487D01*
X594824Y199333D02*
X596333Y200842D01*
X586585Y191409D02*
X588673Y193497D01*
X586585Y186685D02*
Y191409D01*
X584497Y184597D02*
X586585Y186685D01*
X582204Y184597D02*
X584497D01*
X563281Y192034D02*
Y199333D01*
X543582Y191780D02*
Y199032D01*
X583281Y192113D02*
Y199333D01*
X573045Y191867D02*
Y199097D01*
X573281Y199333D01*
X553281Y191855D02*
Y199333D01*
X533328Y191867D02*
Y199286D01*
X533281Y199333D02*
X533328Y199286D01*
X583034Y191867D02*
X583281Y192113D01*
X563281Y192034D02*
X563351Y191964D01*
X533328Y183420D02*
Y187733D01*
X563241Y184918D02*
Y187721D01*
X571315Y187702D02*
X573014D01*
X573045Y187733D01*
X569853Y186240D02*
X571315Y187702D01*
X593518Y164853D02*
Y166117D01*
X583000Y154383D02*
Y156184D01*
X589010Y162195D01*
Y166609D01*
X593518Y166117D02*
X594010Y166609D01*
X582127Y153510D02*
X583000Y154383D01*
X582127Y153510D02*
X582128Y153509D01*
X582127Y153510D02*
X582127D01*
X653000Y141500D02*
X661012D01*
X653000Y161500D02*
X661012D01*
D14*
X560747Y145179D02*
Y147101D01*
X558721Y143153D02*
X560747Y145179D01*
Y147101D02*
X566243Y152597D01*
X557282Y141432D02*
X558721Y142870D01*
Y143153D01*
X557282Y136609D02*
Y141432D01*
X571352Y138345D02*
X571404Y138398D01*
X557282Y152109D02*
X557343Y152048D01*
X561120D01*
X563047Y153975D01*
X556713Y151470D02*
X557282Y152039D01*
X556713Y150509D02*
Y151470D01*
X563047Y153975D02*
X566227D01*
X553520Y147118D02*
Y147315D01*
X556713Y150509D01*
D19*
X622791Y169339D02*
D03*
Y176819D02*
D03*
X633814Y176819D02*
D03*
Y173079D02*
D03*
Y169339D02*
D03*
D20*
X604066Y200487D02*
D03*
Y196353D02*
D03*
X583034Y191867D02*
D03*
Y187733D02*
D03*
X533328Y191867D02*
D03*
Y187733D02*
D03*
X543613Y191749D02*
D03*
Y187616D02*
D03*
X553271Y191855D02*
D03*
Y187721D02*
D03*
X563351Y191964D02*
D03*
Y187830D02*
D03*
X573045Y191867D02*
D03*
Y187733D02*
D03*
D21*
X571628Y148262D02*
D03*
X568084D02*
D03*
X571352Y133808D02*
D03*
X567808D02*
D03*
X557282Y152109D02*
D03*
X553739D02*
D03*
X600597Y162078D02*
D03*
X604140D02*
D03*
X557282Y136609D02*
D03*
X553739D02*
D03*
D22*
X555855Y157944D02*
D03*
X555855Y155732D02*
D03*
X612510Y186503D02*
D03*
X612510Y188715D02*
D03*
X616510Y186503D02*
D03*
X616510Y188715D02*
D03*
X558554Y157944D02*
D03*
X558554Y155732D02*
D03*
D23*
X623636Y159227D02*
D03*
Y156668D02*
D03*
Y154109D02*
D03*
X631510D02*
D03*
Y156668D02*
D03*
Y159227D02*
D03*
D24*
X627573Y157849D02*
D03*
D25*
Y154109D02*
D03*
D26*
X661012Y161500D02*
D03*
Y156500D02*
D03*
Y151500D02*
D03*
Y146500D02*
D03*
Y141500D02*
D03*
X644988D02*
D03*
Y146500D02*
D03*
Y151500D02*
D03*
Y156500D02*
D03*
Y161500D02*
D03*
D27*
X571468Y143797D02*
D03*
Y138581D02*
D03*
D28*
X638537Y172881D02*
D03*
Y169337D02*
D03*
X642537Y172881D02*
D03*
Y169337D02*
D03*
X615510Y172881D02*
D03*
Y169337D02*
D03*
X565510Y171337D02*
D03*
Y174881D02*
D03*
X544510Y171337D02*
D03*
Y174881D02*
D03*
D29*
X640510Y195829D02*
D03*
X644546Y188389D02*
D03*
X636475D02*
D03*
D30*
X639404Y182609D02*
D03*
X641617Y182609D02*
D03*
X633404Y182609D02*
D03*
X635617Y182609D02*
D03*
D31*
X630010Y187609D02*
D03*
X622569Y183573D02*
D03*
Y191644D02*
D03*
D32*
X572510Y169109D02*
D03*
X574323D02*
D03*
X578701Y168853D02*
D03*
X576888D02*
D03*
X561549Y164764D02*
D03*
X559737D02*
D03*
D33*
X570010Y173515D02*
D03*
Y171703D02*
D03*
X583010Y146922D02*
D03*
Y145109D02*
D03*
D34*
X557644Y141794D02*
D03*
Y147109D02*
D03*
X553510D02*
D03*
Y141794D02*
D03*
D35*
X604368Y155578D02*
D03*
X599368D02*
D03*
X594369D02*
D03*
X589368D02*
D03*
Y134579D02*
D03*
X594369D02*
D03*
X599368D02*
D03*
X604368D02*
D03*
D36*
X559932Y172109D02*
D03*
X550089D02*
D03*
D37*
X578644Y164999D02*
D03*
Y163621D02*
D03*
Y162243D02*
D03*
Y160865D02*
D03*
Y159487D02*
D03*
Y158109D02*
D03*
Y156731D02*
D03*
Y155353D02*
D03*
Y153975D02*
D03*
Y152597D02*
D03*
X577266Y164999D02*
D03*
Y163621D02*
D03*
Y162243D02*
D03*
Y160865D02*
D03*
Y159487D02*
D03*
Y158109D02*
D03*
Y156731D02*
D03*
Y155353D02*
D03*
Y153975D02*
D03*
Y152597D02*
D03*
X575888Y164999D02*
D03*
Y163621D02*
D03*
Y162243D02*
D03*
Y160865D02*
D03*
Y159487D02*
D03*
Y158109D02*
D03*
Y156731D02*
D03*
Y153975D02*
D03*
Y152597D02*
D03*
X574510Y164999D02*
D03*
Y163621D02*
D03*
Y162243D02*
D03*
Y160865D02*
D03*
Y159487D02*
D03*
Y158109D02*
D03*
Y156731D02*
D03*
Y155353D02*
D03*
Y153975D02*
D03*
Y152597D02*
D03*
X573132Y164999D02*
D03*
Y163621D02*
D03*
Y162243D02*
D03*
Y160865D02*
D03*
Y159487D02*
D03*
Y158109D02*
D03*
Y156731D02*
D03*
Y155353D02*
D03*
Y153975D02*
D03*
Y152597D02*
D03*
X571754Y164999D02*
D03*
Y163621D02*
D03*
Y162243D02*
D03*
Y160865D02*
D03*
Y159487D02*
D03*
Y158109D02*
D03*
Y156731D02*
D03*
Y155353D02*
D03*
Y153975D02*
D03*
Y152597D02*
D03*
X570376Y164999D02*
D03*
Y163621D02*
D03*
Y162243D02*
D03*
Y160865D02*
D03*
Y159487D02*
D03*
Y158109D02*
D03*
Y156731D02*
D03*
Y155353D02*
D03*
X568998Y164999D02*
D03*
Y163621D02*
D03*
Y162243D02*
D03*
Y160865D02*
D03*
Y159487D02*
D03*
Y158109D02*
D03*
Y156731D02*
D03*
Y153975D02*
D03*
Y152597D02*
D03*
X567621Y164999D02*
D03*
Y163621D02*
D03*
Y162243D02*
D03*
Y160865D02*
D03*
Y159487D02*
D03*
Y158109D02*
D03*
Y156731D02*
D03*
Y155353D02*
D03*
X566243Y164999D02*
D03*
Y163621D02*
D03*
Y162243D02*
D03*
Y160865D02*
D03*
Y159487D02*
D03*
Y158109D02*
D03*
Y156731D02*
D03*
Y155353D02*
D03*
Y153975D02*
D03*
Y152597D02*
D03*
D38*
X604368Y168579D02*
D03*
X599368D02*
D03*
X594369D02*
D03*
X589368D02*
D03*
Y187978D02*
D03*
X594369D02*
D03*
X599368D02*
D03*
X604368D02*
D03*
D39*
X575010Y174109D02*
D03*
X580610D02*
D03*
X580810Y180109D02*
D03*
X575210D02*
D03*
D40*
X551427Y162196D02*
D03*
Y156596D02*
D03*
D41*
X577445Y104383D02*
X639813D01*
X571447Y110378D02*
Y128839D01*
Y110378D02*
X577586Y104239D01*
D42*
X638537Y169337D02*
X645494D01*
X633815Y169338D02*
X638536D01*
X638537Y169337D01*
X628510Y171109D02*
Y175609D01*
X630251Y169369D02*
X633784D01*
X628510Y171109D02*
X630251Y169369D01*
X629750Y176849D02*
X633784D01*
X629750D02*
Y178250D01*
X628510Y175609D02*
X629750Y176849D01*
X633814Y169339D02*
X633815Y169338D01*
X633784Y169369D02*
X633815Y169338D01*
X633784Y176849D02*
X633814Y176819D01*
X645494Y169337D02*
X645502Y169329D01*
X571628Y143729D02*
Y148262D01*
X571447Y143548D02*
X571628Y143729D01*
X571352Y128903D02*
Y133808D01*
Y138345D01*
X620844Y148500D02*
X621873Y147471D01*
X619000Y148500D02*
X620844D01*
X628000Y180000D02*
X629750Y178250D01*
D43*
X560385Y160385D02*
X560500Y160500D01*
X560385Y159725D02*
Y160385D01*
X558593Y157934D02*
X560385Y159725D01*
X558554Y157934D02*
X558593D01*
X571754Y148088D02*
Y152597D01*
X580500Y158099D02*
X580510Y158109D01*
X580500Y154000D02*
Y158099D01*
X579961Y153462D02*
X580500Y154000D01*
X579158Y152658D02*
X579190D01*
X579097Y152597D02*
X579158Y152658D01*
X579190D02*
X579961Y153429D01*
Y153462D01*
X578644Y152597D02*
X579097D01*
X575888Y164999D02*
X577266D01*
X578644Y158109D02*
X580510D01*
X577266Y164999D02*
Y166853D01*
X576888Y167231D02*
X577266Y166853D01*
X576888Y167231D02*
Y168853D01*
X574579D02*
X576888D01*
X574323Y169109D02*
X574579Y168853D01*
X574323Y169109D02*
Y173422D01*
X566841Y173550D02*
X566844D01*
X567841Y172549D02*
Y172553D01*
Y172549D02*
X568688Y171703D01*
X570010D01*
X565510Y174881D02*
X566841Y173550D01*
X566844D02*
X567841Y172553D01*
X570010Y173515D02*
X574417D01*
X570010Y171703D02*
X572510Y169203D01*
Y169109D02*
Y169203D01*
X574323Y173422D02*
X574417Y173515D01*
X575010Y174109D02*
Y179909D01*
X575210Y180109D01*
D53*
X596869Y145079D02*
D03*
D61*
X637763Y146608D02*
X644894D01*
X638537Y172881D02*
X646239D01*
X633914Y172980D02*
X638438D01*
X638537Y172881D01*
X633844Y176849D02*
X639251D01*
X641617Y179215D02*
Y182609D01*
X639251Y176849D02*
X641617Y179215D01*
X633814Y173079D02*
X633914Y172980D01*
X633814Y176819D02*
X633844Y176849D01*
X599368Y163388D02*
Y168579D01*
X600247Y162510D02*
X600284D01*
X600302Y161774D02*
Y162492D01*
X599368Y163388D02*
X600247Y162510D01*
X600284D02*
X600302Y162492D01*
X616510Y173881D02*
Y186503D01*
X594010Y153609D02*
Y155609D01*
Y145609D02*
X596510Y143109D01*
X551262Y156618D02*
X553739Y154141D01*
X604368Y134560D02*
Y134579D01*
X604568Y134360D02*
X608761D01*
X621873Y147471D01*
X604368Y134560D02*
X604568Y134360D01*
X553739Y152109D02*
Y154141D01*
X553510Y136837D02*
Y141794D01*
Y136837D02*
X553739Y136609D01*
X632373Y147471D02*
X635010Y150109D01*
Y156109D01*
X629873Y147471D02*
X632373D01*
X621873D02*
Y152345D01*
X612510Y183109D02*
Y186503D01*
Y183109D02*
X613010Y182609D01*
X644546Y185538D02*
Y188389D01*
X641617Y182609D02*
X644546Y185538D01*
X636453Y195829D02*
X640510D01*
X615510Y172881D02*
X616510Y173881D01*
X632510Y182609D02*
X633404D01*
X630010Y185109D02*
Y187609D01*
X636475Y188389D02*
X636510Y188353D01*
Y184609D02*
Y188353D01*
X635617Y183715D02*
X636510Y184609D01*
X639404Y182609D02*
X639404Y182609D01*
X635617Y182609D02*
Y183715D01*
Y182609D02*
X639404D01*
X630010Y185109D02*
X632510Y182609D01*
X624510Y161609D02*
X630510D01*
X631510Y160609D01*
Y156668D02*
Y159227D01*
Y160609D01*
X623636Y156668D02*
Y159227D01*
X622419Y191644D02*
X622569D01*
X616510Y186503D02*
X619640D01*
X612617Y188715D02*
X616510D01*
X618010D01*
X618012Y188717D01*
X619492D01*
X619640Y186503D02*
X622569Y183573D01*
X619492Y188717D02*
X622419Y191644D01*
X623636Y160735D02*
X624510Y161609D01*
X621873Y152345D02*
X623636Y154109D01*
X634451Y156668D02*
X635010Y156109D01*
X631510Y156668D02*
X634451D01*
X627573Y154109D02*
X631510D01*
X627573Y154109D02*
Y157849D01*
Y154109D02*
X627573Y154109D01*
X623636Y159227D02*
Y160735D01*
X594369Y147579D02*
Y155578D01*
D62*
X575467Y151580D02*
X577004D01*
X580256Y148328D02*
X584312D01*
X577004Y151580D02*
X580256Y148328D01*
X584312D02*
X589010Y143630D01*
Y132609D02*
Y143630D01*
X555865Y155721D02*
X560907D01*
X555855Y155732D02*
X555865Y155721D01*
X551815Y162585D02*
X553157D01*
Y162609D02*
X562415D01*
X549687Y162585D02*
X551038D01*
X551427Y162196D01*
X547906Y164366D02*
X549687Y162585D01*
X551427Y162196D02*
X551815Y162585D01*
X562415Y162609D02*
X563411D01*
X543281Y199333D02*
X543582Y199032D01*
Y191780D02*
X543613Y191749D01*
X563241Y187721D02*
X563351Y187830D01*
X561415Y155213D02*
X563652D01*
X560907Y155721D02*
X561415Y155213D01*
X566182Y158109D02*
X566243D01*
X565225Y157152D02*
X566182Y158109D01*
X565225Y156787D02*
Y157152D01*
X563652Y155213D02*
X565225Y156787D01*
X563420Y162600D02*
X564580D01*
X566157Y162243D02*
X566243D01*
X563411Y162609D02*
X563420Y162600D01*
X564589Y162609D02*
X565791D01*
X566157Y162243D01*
X564580Y162600D02*
X564589Y162609D01*
X574510Y152536D02*
X575467Y151580D01*
X574510Y152536D02*
Y152597D01*
X561351Y164999D02*
X566243D01*
X579709Y160491D02*
X583009D01*
X578705Y159487D02*
X579709Y160491D01*
X578644Y159487D02*
X578705D01*
X583009Y160491D02*
X584000Y159500D01*
X544433Y168275D02*
X544510Y168352D01*
X567621Y164999D02*
Y169227D01*
X544510Y168352D02*
Y170837D01*
X604140Y161579D02*
X604368Y161350D01*
X599010Y153609D02*
X604010D01*
X604368Y155578D02*
Y161350D01*
X604140Y161579D02*
Y168350D01*
X603782Y166381D02*
X604010Y166609D01*
X544510Y170837D02*
X547239D01*
X544510D02*
Y171337D01*
X580510Y146609D02*
X580823Y146922D01*
X583010D01*
X565510Y171337D02*
X567621Y169227D01*
X562010Y172109D02*
X563010Y171109D01*
X565282D01*
X548510Y172109D02*
X550089D01*
X547239Y170837D02*
X548510Y172109D01*
X559432D02*
X562010D01*
X565282Y171109D02*
X565510Y171337D01*
D63*
X576510Y171109D02*
X579010D01*
D64*
X563281Y209333D02*
D03*
Y199333D02*
D03*
X543281D02*
D03*
X553281D02*
D03*
X533281Y209333D02*
D03*
X543281D02*
D03*
X553281D02*
D03*
X573281Y199333D02*
D03*
Y209333D02*
D03*
X593281D02*
D03*
X583281D02*
D03*
X593281Y199333D02*
D03*
X583281D02*
D03*
D65*
X533281D02*
D03*
D66*
X637763Y146608D02*
D03*
X653000Y151500D02*
D03*
X645502Y169329D02*
D03*
X660000Y208000D02*
D03*
X656000Y200000D02*
D03*
X660000Y192000D02*
D03*
X656000Y184000D02*
D03*
X660000Y176000D02*
D03*
X656000Y168000D02*
D03*
Y136000D02*
D03*
X652000Y208000D02*
D03*
X648000Y200000D02*
D03*
X652000Y192000D02*
D03*
X648000Y184000D02*
D03*
X652000Y176000D02*
D03*
X648000Y168000D02*
D03*
Y136000D02*
D03*
X644000Y208000D02*
D03*
X640000Y200000D02*
D03*
X644000Y192000D02*
D03*
Y176000D02*
D03*
X640000Y136000D02*
D03*
X636000Y208000D02*
D03*
X632000Y200000D02*
D03*
X636000Y192000D02*
D03*
Y144000D02*
D03*
X632000Y136000D02*
D03*
X628000Y208000D02*
D03*
X624000Y200000D02*
D03*
X628000Y192000D02*
D03*
Y144000D02*
D03*
X624000Y136000D02*
D03*
X620000Y208000D02*
D03*
X616000Y200000D02*
D03*
Y184000D02*
D03*
Y136000D02*
D03*
X612000Y208000D02*
D03*
X608000Y200000D02*
D03*
X612000Y192000D02*
D03*
Y176000D02*
D03*
X604000Y208000D02*
D03*
Y176000D02*
D03*
X596000D02*
D03*
X592000Y136000D02*
D03*
X588000Y208000D02*
D03*
X584000Y136000D02*
D03*
X560000Y184000D02*
D03*
Y136000D02*
D03*
X556000Y192000D02*
D03*
X548000Y208000D02*
D03*
Y192000D02*
D03*
X544000Y152000D02*
D03*
X548000Y144000D02*
D03*
X544000Y136000D02*
D03*
X540000Y192000D02*
D03*
Y176000D02*
D03*
X536000Y168000D02*
D03*
Y152000D02*
D03*
X540000Y144000D02*
D03*
X536000Y136000D02*
D03*
X528000Y200000D02*
D03*
Y184000D02*
D03*
Y168000D02*
D03*
X532000Y160000D02*
D03*
X528000Y152000D02*
D03*
X532000Y144000D02*
D03*
X528000Y136000D02*
D03*
X653000Y141500D02*
D03*
Y161500D02*
D03*
X629873Y147471D02*
D03*
X625148D02*
D03*
X619000Y148500D02*
D03*
X628000Y180000D02*
D03*
D67*
X618510Y165609D02*
D03*
Y169109D02*
D03*
X551617Y181917D02*
D03*
X534367D02*
D03*
X531825D02*
D03*
X542276D02*
D03*
X582306Y184665D02*
D03*
X566530Y190151D02*
D03*
X579942Y190489D02*
D03*
X563241Y184918D02*
D03*
X569853Y186240D02*
D03*
X575952Y186766D02*
D03*
X599489Y193395D02*
D03*
X544615Y181917D02*
D03*
X571355Y181171D02*
D03*
X560957Y157687D02*
D03*
X575702Y133000D02*
D03*
Y141000D02*
D03*
Y135000D02*
D03*
Y137000D02*
D03*
Y139000D02*
D03*
Y143000D02*
D03*
Y145000D02*
D03*
Y147000D02*
D03*
X577702Y146000D02*
D03*
Y142000D02*
D03*
Y136000D02*
D03*
Y138000D02*
D03*
Y140000D02*
D03*
Y144000D02*
D03*
Y134000D02*
D03*
X565298Y134159D02*
D03*
Y144159D02*
D03*
Y140159D02*
D03*
Y138159D02*
D03*
Y136159D02*
D03*
Y142159D02*
D03*
Y148159D02*
D03*
Y146159D02*
D03*
X577002Y148796D02*
D03*
X567298Y137159D02*
D03*
Y139159D02*
D03*
Y141159D02*
D03*
Y143159D02*
D03*
Y145159D02*
D03*
X559102Y166973D02*
D03*
X588566Y182878D02*
D03*
X581688Y166104D02*
D03*
X547906Y164366D02*
D03*
X562254Y166741D02*
D03*
X555218Y166988D02*
D03*
X568000Y181500D02*
D03*
X570000Y179000D02*
D03*
X557432Y164903D02*
D03*
X563000Y156960D02*
D03*
X584000Y159500D02*
D03*
X582128Y153509D02*
D03*
X580510Y158109D02*
D03*
Y146609D02*
D03*
X581010Y149909D02*
D03*
X544433Y168275D02*
D03*
X576510Y171109D02*
D03*
X636453Y195829D02*
D03*
X560500Y160500D02*
D03*
X579010Y171109D02*
D03*
X613010Y182609D02*
D03*
X615010Y165609D02*
D03*
X618510Y162109D02*
D03*
X611510D02*
D03*
Y169109D02*
D03*
Y165609D02*
D03*
X615010Y162109D02*
D03*
D68*
X571754Y163621D02*
D03*
X573132D02*
D03*
X571754Y153975D02*
D03*
X578644Y160865D02*
D03*
Y155353D02*
D03*
Y153975D02*
D03*
X571754Y155353D02*
D03*
X568998Y153975D02*
D03*
X567621Y155353D02*
D03*
X568998Y156731D02*
D03*
X571754D02*
D03*
X570376Y155353D02*
D03*
Y156731D02*
D03*
X568998Y160865D02*
D03*
X567621D02*
D03*
Y158109D02*
D03*
X568998D02*
D03*
Y159487D02*
D03*
X570376Y163621D02*
D03*
X568998D02*
D03*
X567621Y162243D02*
D03*
X571754D02*
D03*
X568998D02*
D03*
X570376D02*
D03*
X571754Y158109D02*
D03*
Y159487D02*
D03*
Y160865D02*
D03*
X570376Y158109D02*
D03*
Y160865D02*
D03*
Y159487D02*
D03*
X574510Y156731D02*
D03*
Y158109D02*
D03*
X577266Y153975D02*
D03*
X575888D02*
D03*
X574510Y155353D02*
D03*
X573132Y156731D02*
D03*
X573132Y155353D02*
D03*
X574510Y162243D02*
D03*
X573132Y153975D02*
D03*
X573132Y162243D02*
D03*
X574510Y153975D02*
D03*
X574510Y160865D02*
D03*
X573132Y159487D02*
D03*
Y158109D02*
D03*
Y160865D02*
D03*
X574510Y159487D02*
D03*
X574510Y163621D02*
D03*
X567621D02*
D03*
X577266D02*
D03*
M02*
