G04*
G04 #@! TF.GenerationSoftware,Altium Limited,Altium Designer,22.10.1 (41)*
G04*
G04 Layer_Physical_Order=2*
G04 Layer_Color=16711833*
%FSLAX25Y25*%
%MOIN*%
G70*
G04*
G04 #@! TF.SameCoordinates,6EEB4584-1C63-4AE3-A79B-07B07B7A1057*
G04*
G04*
G04 #@! TF.FilePolarity,Positive*
G04*
G01*
G75*
%ADD11C,0.00600*%
%ADD14C,0.00800*%
%ADD62C,0.00400*%
%ADD66C,0.01800*%
%ADD67C,0.01600*%
%ADD68C,0.00800*%
G36*
X667758Y131037D02*
X575196D01*
X574702Y131051D01*
X574702Y131537D01*
Y137697D01*
Y149494D01*
X568206D01*
Y144783D01*
Y131537D01*
X568206Y131051D01*
X567712Y131037D01*
X524816D01*
Y215694D01*
X667758D01*
Y131037D01*
D02*
G37*
%LPC*%
G36*
X593735Y212784D02*
X592826D01*
X591949Y212549D01*
X591162Y212094D01*
X590519Y211452D01*
X590065Y210665D01*
X589829Y209787D01*
Y208879D01*
X590065Y208001D01*
X590519Y207214D01*
X591162Y206571D01*
X591949Y206117D01*
X592826Y205882D01*
X593735D01*
X594613Y206117D01*
X595400Y206571D01*
X596042Y207214D01*
X596497Y208001D01*
X596732Y208879D01*
Y209787D01*
X596497Y210665D01*
X596042Y211452D01*
X595400Y212094D01*
X594613Y212549D01*
X593735Y212784D01*
D02*
G37*
G36*
X583735D02*
X582826D01*
X581949Y212549D01*
X581162Y212094D01*
X580519Y211452D01*
X580065Y210665D01*
X579830Y209787D01*
Y208879D01*
X580065Y208001D01*
X580519Y207214D01*
X581162Y206571D01*
X581949Y206117D01*
X582826Y205882D01*
X583735D01*
X584613Y206117D01*
X585400Y206571D01*
X586042Y207214D01*
X586497Y208001D01*
X586732Y208879D01*
Y209787D01*
X586497Y210665D01*
X586042Y211452D01*
X585400Y212094D01*
X584613Y212549D01*
X583735Y212784D01*
D02*
G37*
G36*
X573735D02*
X572826D01*
X571949Y212549D01*
X571162Y212094D01*
X570519Y211452D01*
X570065Y210665D01*
X569830Y209787D01*
Y208879D01*
X570065Y208001D01*
X570519Y207214D01*
X571162Y206571D01*
X571949Y206117D01*
X572826Y205882D01*
X573735D01*
X574613Y206117D01*
X575400Y206571D01*
X576042Y207214D01*
X576497Y208001D01*
X576732Y208879D01*
Y209787D01*
X576497Y210665D01*
X576042Y211452D01*
X575400Y212094D01*
X574613Y212549D01*
X573735Y212784D01*
D02*
G37*
G36*
X563735D02*
X562826D01*
X561949Y212549D01*
X561162Y212094D01*
X560519Y211452D01*
X560065Y210665D01*
X559830Y209787D01*
Y208879D01*
X560065Y208001D01*
X560519Y207214D01*
X561162Y206571D01*
X561949Y206117D01*
X562826Y205882D01*
X563735D01*
X564613Y206117D01*
X565400Y206571D01*
X566042Y207214D01*
X566497Y208001D01*
X566732Y208879D01*
Y209787D01*
X566497Y210665D01*
X566042Y211452D01*
X565400Y212094D01*
X564613Y212549D01*
X563735Y212784D01*
D02*
G37*
G36*
X553735D02*
X552826D01*
X551949Y212549D01*
X551162Y212094D01*
X550519Y211452D01*
X550065Y210665D01*
X549829Y209787D01*
Y208879D01*
X550065Y208001D01*
X550519Y207214D01*
X551162Y206571D01*
X551949Y206117D01*
X552826Y205882D01*
X553735D01*
X554613Y206117D01*
X555400Y206571D01*
X556042Y207214D01*
X556497Y208001D01*
X556732Y208879D01*
Y209787D01*
X556497Y210665D01*
X556042Y211452D01*
X555400Y212094D01*
X554613Y212549D01*
X553735Y212784D01*
D02*
G37*
G36*
X543735D02*
X542826D01*
X541949Y212549D01*
X541162Y212094D01*
X540519Y211452D01*
X540065Y210665D01*
X539829Y209787D01*
Y208879D01*
X540065Y208001D01*
X540519Y207214D01*
X541162Y206571D01*
X541949Y206117D01*
X542826Y205882D01*
X543735D01*
X544613Y206117D01*
X545400Y206571D01*
X546042Y207214D01*
X546497Y208001D01*
X546732Y208879D01*
Y209787D01*
X546497Y210665D01*
X546042Y211452D01*
X545400Y212094D01*
X544613Y212549D01*
X543735Y212784D01*
D02*
G37*
G36*
X533735D02*
X532826D01*
X531949Y212549D01*
X531162Y212094D01*
X530519Y211452D01*
X530065Y210665D01*
X529830Y209787D01*
Y208879D01*
X530065Y208001D01*
X530519Y207214D01*
X531162Y206571D01*
X531949Y206117D01*
X532826Y205882D01*
X533735D01*
X534613Y206117D01*
X535400Y206571D01*
X536042Y207214D01*
X536497Y208001D01*
X536732Y208879D01*
Y209787D01*
X536497Y210665D01*
X536042Y211452D01*
X535400Y212094D01*
X534613Y212549D01*
X533735Y212784D01*
D02*
G37*
G36*
X593735Y202784D02*
X592826D01*
X591949Y202549D01*
X591162Y202095D01*
X590519Y201452D01*
X590065Y200665D01*
X589829Y199787D01*
Y198879D01*
X590065Y198001D01*
X590519Y197214D01*
X591162Y196571D01*
X591949Y196117D01*
X592826Y195882D01*
X593735D01*
X594613Y196117D01*
X595400Y196571D01*
X596042Y197214D01*
X596497Y198001D01*
X596732Y198879D01*
Y199787D01*
X596497Y200665D01*
X596042Y201452D01*
X595400Y202095D01*
X594613Y202549D01*
X593735Y202784D01*
D02*
G37*
G36*
X583735D02*
X582826D01*
X581949Y202549D01*
X581162Y202095D01*
X580519Y201452D01*
X580065Y200665D01*
X579830Y199787D01*
Y198879D01*
X580065Y198001D01*
X580519Y197214D01*
X581162Y196571D01*
X581949Y196117D01*
X582826Y195882D01*
X583735D01*
X584613Y196117D01*
X585400Y196571D01*
X586042Y197214D01*
X586497Y198001D01*
X586732Y198879D01*
Y199787D01*
X586497Y200665D01*
X586042Y201452D01*
X585400Y202095D01*
X584613Y202549D01*
X583735Y202784D01*
D02*
G37*
G36*
X573735D02*
X572826D01*
X571949Y202549D01*
X571162Y202095D01*
X570519Y201452D01*
X570065Y200665D01*
X569830Y199787D01*
Y198879D01*
X570065Y198001D01*
X570519Y197214D01*
X571162Y196571D01*
X571949Y196117D01*
X572826Y195882D01*
X573735D01*
X574613Y196117D01*
X575400Y196571D01*
X576042Y197214D01*
X576497Y198001D01*
X576732Y198879D01*
Y199787D01*
X576497Y200665D01*
X576042Y201452D01*
X575400Y202095D01*
X574613Y202549D01*
X573735Y202784D01*
D02*
G37*
G36*
X563735D02*
X562826D01*
X561949Y202549D01*
X561162Y202095D01*
X560519Y201452D01*
X560065Y200665D01*
X559830Y199787D01*
Y198879D01*
X560065Y198001D01*
X560519Y197214D01*
X561162Y196571D01*
X561949Y196117D01*
X562826Y195882D01*
X563735D01*
X564613Y196117D01*
X565400Y196571D01*
X566042Y197214D01*
X566497Y198001D01*
X566732Y198879D01*
Y199787D01*
X566497Y200665D01*
X566042Y201452D01*
X565400Y202095D01*
X564613Y202549D01*
X563735Y202784D01*
D02*
G37*
G36*
X553735D02*
X552826D01*
X551949Y202549D01*
X551162Y202095D01*
X550519Y201452D01*
X550065Y200665D01*
X549829Y199787D01*
Y198879D01*
X550065Y198001D01*
X550519Y197214D01*
X551162Y196571D01*
X551949Y196117D01*
X552826Y195882D01*
X553735D01*
X554613Y196117D01*
X555400Y196571D01*
X556042Y197214D01*
X556497Y198001D01*
X556732Y198879D01*
Y199787D01*
X556497Y200665D01*
X556042Y201452D01*
X555400Y202095D01*
X554613Y202549D01*
X553735Y202784D01*
D02*
G37*
G36*
X543735D02*
X542826D01*
X541949Y202549D01*
X541162Y202095D01*
X540519Y201452D01*
X540065Y200665D01*
X539829Y199787D01*
Y198879D01*
X540065Y198001D01*
X540519Y197214D01*
X541162Y196571D01*
X541949Y196117D01*
X542826Y195882D01*
X543735D01*
X544613Y196117D01*
X545400Y196571D01*
X546042Y197214D01*
X546497Y198001D01*
X546732Y198879D01*
Y199787D01*
X546497Y200665D01*
X546042Y201452D01*
X545400Y202095D01*
X544613Y202549D01*
X543735Y202784D01*
D02*
G37*
G36*
X536732D02*
X529830D01*
Y195882D01*
X536732D01*
Y202784D01*
D02*
G37*
G36*
X636692Y197029D02*
X636215D01*
X635774Y196847D01*
X635436Y196509D01*
X635253Y196068D01*
Y195591D01*
X635436Y195150D01*
X635774Y194812D01*
X636215Y194629D01*
X636692D01*
X637133Y194812D01*
X637471Y195150D01*
X637653Y195591D01*
Y196068D01*
X637471Y196509D01*
X637133Y196847D01*
X636692Y197029D01*
D02*
G37*
G36*
X599728Y194595D02*
X599251D01*
X598810Y194413D01*
X598472Y194075D01*
X598289Y193634D01*
Y193157D01*
X598472Y192716D01*
X598810Y192378D01*
X599251Y192195D01*
X599728D01*
X600169Y192378D01*
X600507Y192716D01*
X600689Y193157D01*
Y193634D01*
X600507Y194075D01*
X600169Y194413D01*
X599728Y194595D01*
D02*
G37*
G36*
X585914Y193134D02*
X568800D01*
X568527Y193080D01*
X568295Y192926D01*
X566720Y191351D01*
X566291D01*
X565850Y191168D01*
X565512Y190830D01*
X565330Y190389D01*
Y189912D01*
X565512Y189471D01*
X565850Y189133D01*
X566291Y188951D01*
X566464Y188451D01*
X564539Y186526D01*
X564392Y186171D01*
X564071Y186010D01*
X563849Y185965D01*
X563480Y186118D01*
X563003D01*
X562562Y185935D01*
X562224Y185598D01*
X562041Y185157D01*
Y184679D01*
X562224Y184238D01*
X562562Y183900D01*
X563003Y183718D01*
X563480D01*
X563849Y183871D01*
X564143Y183755D01*
X564349Y183621D01*
Y178445D01*
X564539Y177986D01*
X568349Y174176D01*
Y167418D01*
X567849Y167211D01*
X563213Y171847D01*
X562754Y172037D01*
X547546D01*
X547086Y171847D01*
X544702Y169462D01*
X544671Y169475D01*
X544194D01*
X543753Y169292D01*
X543415Y168954D01*
X543233Y168513D01*
Y168036D01*
X543415Y167595D01*
X543753Y167257D01*
X544194Y167075D01*
X544671D01*
X545113Y167257D01*
X545450Y167595D01*
X545633Y168036D01*
Y168513D01*
X545620Y168544D01*
X547815Y170738D01*
X562485D01*
X566633Y166590D01*
X566632Y166582D01*
X566089Y166417D01*
X565189Y167318D01*
X564924Y167495D01*
X564612Y167557D01*
X564612Y167557D01*
X563136D01*
X562934Y167758D01*
X562493Y167941D01*
X562208D01*
X560274Y169875D01*
X560009Y170052D01*
X559697Y170114D01*
X559697Y170114D01*
X553658D01*
X553346Y170052D01*
X553081Y169875D01*
X553081Y169875D01*
X551615Y168409D01*
X551438Y168144D01*
X551376Y167832D01*
X551376Y167832D01*
Y161808D01*
X551376Y161808D01*
X551438Y161496D01*
X551615Y161231D01*
X557722Y155124D01*
X557515Y154624D01*
X556607D01*
X548555Y162677D01*
Y163337D01*
X548585Y163349D01*
X548923Y163687D01*
X549106Y164128D01*
Y164605D01*
X548923Y165046D01*
X548585Y165384D01*
X548144Y165567D01*
X547667D01*
X547226Y165384D01*
X546888Y165046D01*
X546706Y164605D01*
Y164128D01*
X546888Y163687D01*
X547226Y163349D01*
X547256Y163337D01*
Y162408D01*
X547446Y161949D01*
X555402Y153993D01*
X555210Y153531D01*
X554112D01*
X535016Y172627D01*
Y180887D01*
X535046Y180900D01*
X535384Y181238D01*
X535567Y181679D01*
Y182156D01*
X535384Y182597D01*
X535046Y182935D01*
X534605Y183117D01*
X534128D01*
X533687Y182935D01*
X533349Y182597D01*
X532842D01*
X532504Y182935D01*
X532063Y183117D01*
X531586D01*
X531145Y182935D01*
X530807Y182597D01*
X530625Y182156D01*
Y181679D01*
X530807Y181238D01*
X531145Y180900D01*
X531586Y180717D01*
X532063D01*
X532504Y180900D01*
X532842Y181237D01*
X533349D01*
X533687Y180900D01*
X533717Y180887D01*
Y172359D01*
X533907Y171899D01*
X553384Y152423D01*
X553843Y152233D01*
X570661D01*
X571121Y152423D01*
X571873Y153175D01*
X571914D01*
X572208Y153297D01*
X572357Y153433D01*
X572821Y153230D01*
X572873Y153104D01*
X575432Y150545D01*
X575891Y150355D01*
X576323D01*
X576422Y149855D01*
X576323Y149814D01*
X575985Y149476D01*
X575802Y149035D01*
Y148558D01*
X575985Y148117D01*
X576323Y147779D01*
X576764Y147596D01*
X577241D01*
X577682Y147779D01*
X577735Y147831D01*
X578183Y147983D01*
X578379Y147822D01*
X579323Y146878D01*
X579310Y146848D01*
Y146370D01*
X579493Y145929D01*
X579831Y145592D01*
X580272Y145409D01*
X580749D01*
X581190Y145592D01*
X581528Y145929D01*
X581710Y146370D01*
Y146848D01*
X581528Y147289D01*
X581190Y147626D01*
X580749Y147809D01*
X580272D01*
X580241Y147796D01*
X579318Y148720D01*
Y149451D01*
X579128Y149910D01*
X577574Y151463D01*
X577115Y151654D01*
X576160D01*
X575244Y152570D01*
X575217Y152734D01*
X575336Y153157D01*
X575564Y153244D01*
X575729Y153175D01*
X576047D01*
X576341Y153297D01*
X576577Y153512D01*
X576813Y153297D01*
X577107Y153175D01*
X577425D01*
X577719Y153297D01*
X577955Y153512D01*
X578191Y153297D01*
X578399Y153211D01*
X580225Y151385D01*
X580227Y151377D01*
X580212Y150808D01*
X579993Y150589D01*
X579810Y150148D01*
Y149670D01*
X579993Y149229D01*
X580331Y148892D01*
X580772Y148709D01*
X581249D01*
X581690Y148892D01*
X582028Y149229D01*
X582210Y149670D01*
Y150148D01*
X582028Y150589D01*
X581941Y150676D01*
X582148Y151176D01*
X584469D01*
X584742Y151230D01*
X584974Y151385D01*
X592752Y159163D01*
X592907Y159394D01*
X592961Y159667D01*
Y186087D01*
X592907Y186360D01*
X592752Y186592D01*
X586418Y192926D01*
X586187Y193080D01*
X585914Y193134D01*
D02*
G37*
G36*
X544854Y183117D02*
X544377D01*
X543936Y182935D01*
X543765Y182764D01*
X543445Y182651D01*
X543126Y182764D01*
X542955Y182935D01*
X542514Y183117D01*
X542037D01*
X541596Y182935D01*
X541258Y182597D01*
X541076Y182156D01*
Y181679D01*
X541258Y181238D01*
X541596Y180900D01*
X542037Y180717D01*
X542514D01*
X542955Y180900D01*
X543126Y181071D01*
X543445Y181184D01*
X543765Y181071D01*
X543936Y180900D01*
X544377Y180717D01*
X544854D01*
X545295Y180900D01*
X545633Y181238D01*
X545815Y181679D01*
Y182156D01*
X545633Y182597D01*
X545295Y182935D01*
X544854Y183117D01*
D02*
G37*
G36*
X613249Y183809D02*
X612772D01*
X612331Y183626D01*
X611993Y183289D01*
X611810Y182848D01*
Y182370D01*
X611993Y181929D01*
X612331Y181592D01*
X612772Y181409D01*
X613249D01*
X613690Y181592D01*
X614028Y181929D01*
X614210Y182370D01*
Y182848D01*
X614028Y183289D01*
X613690Y183626D01*
X613249Y183809D01*
D02*
G37*
G36*
X551856Y183117D02*
X551379D01*
X550938Y182935D01*
X550600Y182597D01*
X550418Y182156D01*
Y181679D01*
X550600Y181238D01*
X550938Y180900D01*
X551379Y180717D01*
X551856D01*
X552297Y180900D01*
X552635Y181238D01*
X552817Y181679D01*
Y182156D01*
X552635Y182597D01*
X552297Y182935D01*
X551856Y183117D01*
D02*
G37*
G36*
X628259Y181300D02*
X627741D01*
X627264Y181102D01*
X626898Y180736D01*
X626700Y180259D01*
Y179741D01*
X626898Y179264D01*
X627264Y178898D01*
X627741Y178700D01*
X628259D01*
X628736Y178898D01*
X629102Y179264D01*
X629300Y179741D01*
Y180259D01*
X629102Y180736D01*
X628736Y181102D01*
X628259Y181300D01*
D02*
G37*
G36*
X645760Y170629D02*
X645243D01*
X644765Y170431D01*
X644399Y170066D01*
X644202Y169588D01*
Y169071D01*
X644399Y168593D01*
X644765Y168227D01*
X645243Y168029D01*
X645760D01*
X646238Y168227D01*
X646604Y168593D01*
X646802Y169071D01*
Y169588D01*
X646604Y170066D01*
X646238Y170431D01*
X645760Y170629D01*
D02*
G37*
G36*
X618749Y170309D02*
X618272D01*
X617831Y170126D01*
X617493Y169789D01*
X617310Y169348D01*
Y168870D01*
X617493Y168429D01*
X617831Y168092D01*
X618272Y167909D01*
X618749D01*
X619190Y168092D01*
X619528Y168429D01*
X619710Y168870D01*
Y169348D01*
X619528Y169789D01*
X619190Y170126D01*
X618749Y170309D01*
D02*
G37*
G36*
X611749D02*
X611272D01*
X610831Y170126D01*
X610493Y169789D01*
X610310Y169348D01*
Y168870D01*
X610493Y168429D01*
X610831Y168092D01*
X611272Y167909D01*
X611749D01*
X612190Y168092D01*
X612528Y168429D01*
X612710Y168870D01*
Y169348D01*
X612528Y169789D01*
X612190Y170126D01*
X611749Y170309D01*
D02*
G37*
G36*
X618749Y166809D02*
X618272D01*
X617831Y166626D01*
X617493Y166289D01*
X617310Y165848D01*
Y165370D01*
X617493Y164929D01*
X617831Y164592D01*
X618272Y164409D01*
X618749D01*
X619190Y164592D01*
X619528Y164929D01*
X619710Y165370D01*
Y165848D01*
X619528Y166289D01*
X619190Y166626D01*
X618749Y166809D01*
D02*
G37*
G36*
X615249D02*
X614772D01*
X614331Y166626D01*
X613993Y166289D01*
X613810Y165848D01*
Y165370D01*
X613993Y164929D01*
X614331Y164592D01*
X614772Y164409D01*
X615249D01*
X615690Y164592D01*
X616028Y164929D01*
X616210Y165370D01*
Y165848D01*
X616028Y166289D01*
X615690Y166626D01*
X615249Y166809D01*
D02*
G37*
G36*
X611749D02*
X611272D01*
X610831Y166626D01*
X610493Y166289D01*
X610310Y165848D01*
Y165370D01*
X610493Y164929D01*
X610831Y164592D01*
X611272Y164409D01*
X611749D01*
X612190Y164592D01*
X612528Y164929D01*
X612710Y165370D01*
Y165848D01*
X612528Y166289D01*
X612190Y166626D01*
X611749Y166809D01*
D02*
G37*
G36*
X618749Y163309D02*
X618272D01*
X617831Y163126D01*
X617493Y162789D01*
X617310Y162348D01*
Y161870D01*
X617493Y161429D01*
X617831Y161092D01*
X618272Y160909D01*
X618749D01*
X619190Y161092D01*
X619528Y161429D01*
X619710Y161870D01*
Y162348D01*
X619528Y162789D01*
X619190Y163126D01*
X618749Y163309D01*
D02*
G37*
G36*
X615249D02*
X614772D01*
X614331Y163126D01*
X613993Y162789D01*
X613810Y162348D01*
Y161870D01*
X613993Y161429D01*
X614331Y161092D01*
X614772Y160909D01*
X615249D01*
X615690Y161092D01*
X616028Y161429D01*
X616210Y161870D01*
Y162348D01*
X616028Y162789D01*
X615690Y163126D01*
X615249Y163309D01*
D02*
G37*
G36*
X611749D02*
X611272D01*
X610831Y163126D01*
X610493Y162789D01*
X610310Y162348D01*
Y161870D01*
X610493Y161429D01*
X610831Y161092D01*
X611272Y160909D01*
X611749D01*
X612190Y161092D01*
X612528Y161429D01*
X612710Y161870D01*
Y162348D01*
X612528Y162789D01*
X612190Y163126D01*
X611749Y163309D01*
D02*
G37*
G36*
X653259Y162800D02*
X652741D01*
X652264Y162602D01*
X651898Y162236D01*
X651700Y161759D01*
Y161241D01*
X651898Y160764D01*
X652264Y160398D01*
X652741Y160200D01*
X653259D01*
X653736Y160398D01*
X654102Y160764D01*
X654300Y161241D01*
Y161759D01*
X654102Y162236D01*
X653736Y162602D01*
X653259Y162800D01*
D02*
G37*
G36*
Y152800D02*
X652741D01*
X652264Y152602D01*
X651898Y152236D01*
X651700Y151759D01*
Y151241D01*
X651898Y150764D01*
X652264Y150398D01*
X652741Y150200D01*
X653259D01*
X653736Y150398D01*
X654102Y150764D01*
X654300Y151241D01*
Y151759D01*
X654102Y152236D01*
X653736Y152602D01*
X653259Y152800D01*
D02*
G37*
G36*
X619259Y149800D02*
X618741D01*
X618264Y149602D01*
X617898Y149236D01*
X617700Y148759D01*
Y148241D01*
X617898Y147764D01*
X618264Y147398D01*
X618741Y147200D01*
X619259D01*
X619736Y147398D01*
X620102Y147764D01*
X620300Y148241D01*
Y148759D01*
X620102Y149236D01*
X619736Y149602D01*
X619259Y149800D01*
D02*
G37*
G36*
X630131Y148771D02*
X629614D01*
X629136Y148573D01*
X628770Y148207D01*
X628573Y147730D01*
Y147213D01*
X628770Y146735D01*
X629136Y146369D01*
X629614Y146171D01*
X630131D01*
X630609Y146369D01*
X630975Y146735D01*
X631173Y147213D01*
Y147730D01*
X630975Y148207D01*
X630609Y148573D01*
X630131Y148771D01*
D02*
G37*
G36*
X625407D02*
X624890D01*
X624412Y148573D01*
X624046Y148207D01*
X623848Y147730D01*
Y147213D01*
X624046Y146735D01*
X624412Y146369D01*
X624890Y146171D01*
X625407D01*
X625885Y146369D01*
X626250Y146735D01*
X626448Y147213D01*
Y147730D01*
X626250Y148207D01*
X625885Y148573D01*
X625407Y148771D01*
D02*
G37*
G36*
X638022Y147908D02*
X637505D01*
X637027Y147710D01*
X636661Y147344D01*
X636463Y146867D01*
Y146349D01*
X636661Y145872D01*
X637027Y145506D01*
X637505Y145308D01*
X638022D01*
X638500Y145506D01*
X638866Y145872D01*
X639063Y146349D01*
Y146867D01*
X638866Y147344D01*
X638500Y147710D01*
X638022Y147908D01*
D02*
G37*
G36*
X653259Y142800D02*
X652741D01*
X652264Y142602D01*
X651898Y142236D01*
X651700Y141759D01*
Y141241D01*
X651898Y140764D01*
X652264Y140398D01*
X652741Y140200D01*
X653259D01*
X653736Y140398D01*
X654102Y140764D01*
X654300Y141241D01*
Y141759D01*
X654102Y142236D01*
X653736Y142602D01*
X653259Y142800D01*
D02*
G37*
%LPD*%
G36*
X588762Y184579D02*
X588555Y184079D01*
X588328D01*
X587887Y183896D01*
X587549Y183558D01*
X587366Y183117D01*
Y182640D01*
X587549Y182199D01*
X587779Y181968D01*
Y167236D01*
X584703Y164160D01*
X581290D01*
X580831Y163970D01*
X578526Y161665D01*
X578485D01*
X578191Y161543D01*
X577966Y161318D01*
X577844Y161024D01*
Y160706D01*
X577966Y160412D01*
X578191Y160187D01*
X578485Y160065D01*
X578803D01*
X579097Y160187D01*
X579322Y160412D01*
X579444Y160706D01*
Y160746D01*
X581559Y162861D01*
X584972D01*
X585431Y163051D01*
X588888Y166508D01*
X589078Y166967D01*
Y181792D01*
X589246Y181861D01*
X589565Y182180D01*
X589665Y182174D01*
X590064Y182053D01*
Y163679D01*
X585700Y159315D01*
X585200Y159522D01*
Y159739D01*
X585017Y160180D01*
X584680Y160517D01*
X584239Y160700D01*
X583761D01*
X583320Y160517D01*
X582983Y160180D01*
X582800Y159739D01*
Y159261D01*
X582983Y158820D01*
X583320Y158483D01*
X583761Y158300D01*
X583978D01*
X584185Y157800D01*
X582452Y156067D01*
X579012D01*
X578803Y156153D01*
X578485D01*
X578191Y156031D01*
X577966Y155806D01*
X577844Y155512D01*
Y155194D01*
X577870Y155132D01*
X577487Y154750D01*
X577425Y154775D01*
X577107D01*
X576813Y154653D01*
X576577Y154438D01*
X576341Y154653D01*
X576047Y154775D01*
X575729D01*
X575667Y154750D01*
X575285Y155132D01*
X575310Y155194D01*
Y155512D01*
X575189Y155806D01*
X574964Y156031D01*
X574670Y156153D01*
X574351D01*
X574057Y156031D01*
X573586D01*
X573457Y156084D01*
X573291Y156153D01*
X572973D01*
X572679Y156031D01*
X572443Y155816D01*
X572208Y156031D01*
X571914Y156153D01*
X571595D01*
X571301Y156031D01*
X571076Y155806D01*
X570954Y155512D01*
Y155194D01*
X571076Y154900D01*
Y154428D01*
X571023Y154300D01*
X570954Y154134D01*
Y154094D01*
X570448Y153588D01*
X569929Y153620D01*
X569799Y153816D01*
Y154134D01*
X569677Y154428D01*
X569452Y154653D01*
X569158Y154775D01*
X568839D01*
X568782Y154751D01*
X568573Y154899D01*
X568413Y155092D01*
X568395Y155132D01*
X568421Y155194D01*
Y155274D01*
X568436Y155353D01*
X568421Y155432D01*
Y155512D01*
X568390Y155586D01*
X568374Y155665D01*
X568329Y155732D01*
X568299Y155806D01*
X568242Y155863D01*
X568197Y155930D01*
X568130Y155974D01*
X568074Y156031D01*
X568000Y156062D01*
X567933Y156107D01*
X567854Y156122D01*
X567780Y156153D01*
X567699D01*
X567621Y156169D01*
X567542Y156153D01*
X567461D01*
X567387Y156122D01*
X567309Y156107D01*
X567242Y156062D01*
X567179Y156036D01*
X566084D01*
X565877Y156536D01*
X566801Y157459D01*
X567139D01*
X567167Y157431D01*
X567461Y157309D01*
X567780D01*
X568074Y157431D01*
X568310Y157646D01*
X568545Y157431D01*
X568839Y157309D01*
X569158D01*
X569452Y157431D01*
X569677Y157656D01*
X569799Y157950D01*
Y158268D01*
X569677Y158562D01*
Y159034D01*
X569730Y159162D01*
X569799Y159328D01*
Y159646D01*
X569677Y159940D01*
Y160412D01*
X569730Y160540D01*
X569799Y160706D01*
Y161024D01*
X569677Y161318D01*
Y161790D01*
X569730Y161918D01*
X569799Y162084D01*
Y162402D01*
X569773Y162464D01*
X570156Y162846D01*
X570217Y162821D01*
X570536D01*
X570830Y162943D01*
X571066Y163158D01*
X571301Y162943D01*
X571595Y162821D01*
X571914D01*
X572208Y162943D01*
X572443Y163158D01*
X572679Y162943D01*
X572973Y162821D01*
X573291D01*
X573586Y162943D01*
X573821Y163158D01*
X574057Y162943D01*
X574351Y162821D01*
X574670D01*
X574964Y162943D01*
X575189Y163168D01*
X575310Y163462D01*
Y163502D01*
X577263Y165455D01*
X580658D01*
X580670Y165425D01*
X581008Y165087D01*
X581449Y164904D01*
X581926D01*
X582367Y165087D01*
X582705Y165425D01*
X582888Y165866D01*
Y166343D01*
X582705Y166784D01*
X582367Y167122D01*
X581926Y167304D01*
X581449D01*
X581008Y167122D01*
X580670Y166784D01*
X580658Y166754D01*
X576994D01*
X576535Y166563D01*
X574392Y164421D01*
X574351D01*
X574282Y164392D01*
X573792Y164671D01*
X573782Y164685D01*
Y175877D01*
X573592Y176336D01*
X571190Y178738D01*
X571200Y178761D01*
Y179239D01*
X571017Y179680D01*
X570680Y180017D01*
X570239Y180200D01*
X569761D01*
X569320Y180017D01*
X569210Y179907D01*
X568747Y180082D01*
X568744Y180101D01*
X568713Y180516D01*
X569017Y180820D01*
X569200Y181261D01*
Y181739D01*
X569017Y182180D01*
X568680Y182517D01*
X568482Y182599D01*
X568337Y183162D01*
X569191Y184016D01*
X581276D01*
X581289Y183985D01*
X581626Y183648D01*
X582067Y183465D01*
X582545D01*
X582986Y183648D01*
X583323Y183985D01*
X583506Y184426D01*
Y184904D01*
X583323Y185345D01*
X583012Y185656D01*
X583022Y185787D01*
X583148Y186156D01*
X587184D01*
X588762Y184579D01*
D02*
G37*
G36*
X561054Y166788D02*
Y166502D01*
X561237Y166061D01*
X561574Y165724D01*
X562015Y165541D01*
X562493D01*
X562934Y165724D01*
X563136Y165925D01*
X564274D01*
X565605Y164594D01*
Y163124D01*
X565605Y163124D01*
X565667Y162812D01*
X565844Y162547D01*
X566547Y161844D01*
X566811Y161667D01*
X567124Y161605D01*
X567124Y161605D01*
X567127D01*
X567167Y161565D01*
X567242Y161534D01*
X567309Y161489D01*
X567387Y161474D01*
X567461Y161443D01*
X567542D01*
X567621Y161427D01*
X567699Y161443D01*
X567780D01*
X567841Y161468D01*
X567882Y161450D01*
X568074Y161290D01*
X568222Y161081D01*
X568198Y161024D01*
Y160706D01*
X568320Y160412D01*
Y159940D01*
X568267Y159812D01*
X568198Y159646D01*
Y159328D01*
X568224Y159266D01*
X567841Y158883D01*
X567780Y158909D01*
X567461D01*
X567167Y158787D01*
X567139Y158758D01*
X566532D01*
X566073Y158568D01*
X564998Y157493D01*
X564078D01*
X564017Y157640D01*
X563680Y157977D01*
X563239Y158160D01*
X562761D01*
X562320Y157977D01*
X561983Y157640D01*
X561800Y157199D01*
Y156721D01*
X561877Y156536D01*
X561574Y156036D01*
X559118D01*
X553008Y162146D01*
Y167494D01*
X553912Y168399D01*
X554216Y168358D01*
X554366Y167834D01*
X554201Y167668D01*
X554018Y167227D01*
Y166750D01*
X554201Y166308D01*
X554538Y165971D01*
X554979Y165788D01*
X555456D01*
X555898Y165971D01*
X556235Y166308D01*
X556418Y166750D01*
Y167227D01*
X556235Y167668D01*
X555921Y167982D01*
X555929Y168101D01*
X556053Y168482D01*
X559360D01*
X561054Y166788D01*
D02*
G37*
%LPC*%
G36*
X579249Y172309D02*
X578772D01*
X578331Y172126D01*
X578047Y171842D01*
X577760Y171813D01*
X577474Y171842D01*
X577190Y172126D01*
X576749Y172309D01*
X576272D01*
X575831Y172126D01*
X575493Y171789D01*
X575310Y171348D01*
Y170870D01*
X575493Y170429D01*
X575831Y170092D01*
X576272Y169909D01*
X576749D01*
X577190Y170092D01*
X577474Y170376D01*
X577760Y170405D01*
X578047Y170376D01*
X578331Y170092D01*
X578772Y169909D01*
X579249D01*
X579690Y170092D01*
X580028Y170429D01*
X580210Y170870D01*
Y171348D01*
X580028Y171789D01*
X579690Y172126D01*
X579249Y172309D01*
D02*
G37*
G36*
X580749Y159309D02*
X580272D01*
X579831Y159126D01*
X579493Y158789D01*
X579310Y158348D01*
Y157870D01*
X579493Y157429D01*
X579831Y157092D01*
X580272Y156909D01*
X580749D01*
X581190Y157092D01*
X581528Y157429D01*
X581710Y157870D01*
Y158348D01*
X581528Y158789D01*
X581190Y159126D01*
X580749Y159309D01*
D02*
G37*
G36*
X557670Y166103D02*
X557193D01*
X556752Y165920D01*
X556414Y165582D01*
X556231Y165141D01*
Y164664D01*
X556414Y164223D01*
X556752Y163885D01*
X557193Y163703D01*
X557670D01*
X558111Y163885D01*
X558449Y164223D01*
X558632Y164664D01*
Y165141D01*
X558449Y165582D01*
X558111Y165920D01*
X557670Y166103D01*
D02*
G37*
G36*
X560739Y161700D02*
X560261D01*
X559820Y161517D01*
X559483Y161180D01*
X559300Y160739D01*
Y160261D01*
X559483Y159820D01*
X559820Y159483D01*
X560261Y159300D01*
X560739D01*
X561180Y159483D01*
X561517Y159820D01*
X561700Y160261D01*
Y160739D01*
X561517Y161180D01*
X561180Y161517D01*
X560739Y161700D01*
D02*
G37*
%LPD*%
D11*
X576056Y186870D02*
X587480D01*
X575952Y186766D02*
X576056Y186870D01*
X587480D02*
X590778Y183572D01*
X585914Y192421D02*
X592247Y186087D01*
X566530Y190151D02*
X568800Y192421D01*
X585914D01*
X592247Y159667D02*
Y186087D01*
X584469Y151889D02*
X592247Y159667D01*
X582748Y155353D02*
X590778Y163384D01*
Y183572D01*
X580730Y151889D02*
X584469D01*
X578644Y153975D02*
X580730Y151889D01*
X578644Y155353D02*
X582748D01*
D14*
X558780Y155220D02*
X567488D01*
X567621Y155353D01*
X552192Y161808D02*
X558780Y155220D01*
X552192Y161808D02*
Y167832D01*
X553658Y169298D01*
X559697D01*
X562254Y166741D01*
X564612D02*
X566421Y164932D01*
Y163124D02*
Y164932D01*
X567443Y162421D02*
X567621Y162243D01*
X567124Y162421D02*
X567443D01*
X566421Y163124D02*
X567124Y162421D01*
X562254Y166741D02*
X564612D01*
D62*
X566600Y178580D02*
Y182343D01*
Y178580D02*
X570376Y174803D01*
Y163621D02*
Y174803D01*
X571774Y163658D02*
Y175135D01*
X568000Y178908D02*
X571774Y175135D01*
X568000Y178908D02*
Y181500D01*
X570046Y178963D02*
X573132Y175877D01*
Y163621D02*
Y175877D01*
X534367Y181754D02*
X534542Y181930D01*
X562922Y156844D02*
X565267D01*
X534367Y172359D02*
Y181754D01*
Y172359D02*
X553843Y152882D01*
X547906Y162408D02*
X556338Y153975D01*
X568998D01*
X553843Y152882D02*
X570661D01*
X571754Y153975D01*
X547906Y162408D02*
Y164366D01*
X568922Y184665D02*
X582306D01*
X566600Y182343D02*
X568922Y184665D01*
X574885Y189497D02*
X575877Y190489D01*
X579942D01*
X574651Y189233D02*
X574885Y189467D01*
X564998Y186067D02*
X568164Y189233D01*
X574885Y189467D02*
Y189497D01*
X568164Y189233D02*
X574651D01*
X564998Y178445D02*
Y186067D01*
Y178445D02*
X568998Y174445D01*
X547546Y171388D02*
X562754D01*
X567621Y166521D01*
X544433Y168275D02*
X547546Y171388D01*
X567621Y163621D02*
Y166521D01*
X588429Y166967D02*
Y182741D01*
X588566Y182878D01*
X584972Y163511D02*
X588429Y166967D01*
X581290Y163511D02*
X584972D01*
X578644Y160865D02*
X581290Y163511D01*
X578668Y148451D02*
Y149451D01*
X575891Y151004D02*
X577115D01*
X578668Y149451D01*
X573332Y153563D02*
X575891Y151004D01*
X578668Y148451D02*
X580510Y146609D01*
X573332Y153563D02*
Y153667D01*
X573132Y153867D02*
Y153975D01*
Y153867D02*
X573332Y153667D01*
X574510Y163621D02*
X576994Y166104D01*
X581688D01*
X568998Y163621D02*
Y174445D01*
X565267Y156844D02*
X566532Y158109D01*
X567621D01*
D66*
X660000Y208000D02*
D03*
X656000Y200000D02*
D03*
X660000Y192000D02*
D03*
X656000Y184000D02*
D03*
X660000Y176000D02*
D03*
X656000Y168000D02*
D03*
Y136000D02*
D03*
X652000Y208000D02*
D03*
X648000Y200000D02*
D03*
X652000Y192000D02*
D03*
X648000Y184000D02*
D03*
X652000Y176000D02*
D03*
X648000Y168000D02*
D03*
Y136000D02*
D03*
X644000Y208000D02*
D03*
X640000Y200000D02*
D03*
X644000Y192000D02*
D03*
Y176000D02*
D03*
X640000Y136000D02*
D03*
X636000Y208000D02*
D03*
X632000Y200000D02*
D03*
X636000Y192000D02*
D03*
Y144000D02*
D03*
X632000Y136000D02*
D03*
X628000Y208000D02*
D03*
X624000Y200000D02*
D03*
X628000Y192000D02*
D03*
Y144000D02*
D03*
X624000Y136000D02*
D03*
X620000Y208000D02*
D03*
X616000Y200000D02*
D03*
Y184000D02*
D03*
Y136000D02*
D03*
X612000Y208000D02*
D03*
X608000Y200000D02*
D03*
X612000Y192000D02*
D03*
Y176000D02*
D03*
X604000Y208000D02*
D03*
Y176000D02*
D03*
X596000D02*
D03*
X592000Y136000D02*
D03*
X588000Y208000D02*
D03*
X584000Y136000D02*
D03*
X560000Y184000D02*
D03*
Y136000D02*
D03*
X556000Y192000D02*
D03*
X548000Y208000D02*
D03*
Y192000D02*
D03*
X544000Y152000D02*
D03*
X548000Y144000D02*
D03*
X544000Y136000D02*
D03*
X540000Y192000D02*
D03*
Y176000D02*
D03*
X536000Y168000D02*
D03*
Y152000D02*
D03*
X540000Y144000D02*
D03*
X536000Y136000D02*
D03*
X528000Y200000D02*
D03*
Y184000D02*
D03*
Y168000D02*
D03*
X532000Y160000D02*
D03*
X528000Y152000D02*
D03*
X532000Y144000D02*
D03*
X528000Y136000D02*
D03*
D67*
X534367Y181917D02*
D03*
X582306Y184665D02*
D03*
X566530Y190151D02*
D03*
X579942Y190489D02*
D03*
X575952Y186766D02*
D03*
X571355Y181171D02*
D03*
X560957Y157687D02*
D03*
X575702Y133000D02*
D03*
Y141000D02*
D03*
Y135000D02*
D03*
Y137000D02*
D03*
Y139000D02*
D03*
Y143000D02*
D03*
Y145000D02*
D03*
Y147000D02*
D03*
X577702Y146000D02*
D03*
Y142000D02*
D03*
Y136000D02*
D03*
Y138000D02*
D03*
Y140000D02*
D03*
Y144000D02*
D03*
Y134000D02*
D03*
X565298Y134159D02*
D03*
Y144159D02*
D03*
Y140159D02*
D03*
Y138159D02*
D03*
Y136159D02*
D03*
Y142159D02*
D03*
Y148159D02*
D03*
Y146159D02*
D03*
X567298Y137159D02*
D03*
Y139159D02*
D03*
Y141159D02*
D03*
Y143159D02*
D03*
Y145159D02*
D03*
X559102Y166973D02*
D03*
X588566Y182878D02*
D03*
X581688Y166104D02*
D03*
X547906Y164366D02*
D03*
X562254Y166741D02*
D03*
X568000Y181500D02*
D03*
X570000Y179000D02*
D03*
X563000Y156960D02*
D03*
X580510Y146609D02*
D03*
X544433Y168275D02*
D03*
D68*
X571754Y163621D02*
D03*
X573132D02*
D03*
X571754Y153975D02*
D03*
X578644Y160865D02*
D03*
Y155353D02*
D03*
Y153975D02*
D03*
X571754Y155353D02*
D03*
X568998Y156731D02*
D03*
X568998Y153975D02*
D03*
X567621Y155353D02*
D03*
X568998Y156731D02*
D03*
X571754D02*
D03*
X570376Y155353D02*
D03*
D03*
X571754Y156731D02*
D03*
Y155353D02*
D03*
X570376Y156731D02*
D03*
D03*
X568998Y160865D02*
D03*
X567621D02*
D03*
Y158109D02*
D03*
X568998D02*
D03*
D03*
Y160865D02*
D03*
Y159487D02*
D03*
D03*
X570376Y163621D02*
D03*
X568998D02*
D03*
X567621Y162243D02*
D03*
X568998D02*
D03*
X573132D02*
D03*
X571754D02*
D03*
D03*
X568998D02*
D03*
X570376D02*
D03*
D03*
X571754Y158109D02*
D03*
D03*
Y160865D02*
D03*
Y159487D02*
D03*
D03*
Y160865D02*
D03*
X570376Y158109D02*
D03*
D03*
Y160865D02*
D03*
D03*
Y159487D02*
D03*
D03*
X574510Y156731D02*
D03*
Y155353D02*
D03*
Y158109D02*
D03*
D03*
X574510Y153975D02*
D03*
X575888D02*
D03*
X577266D02*
D03*
X577266D02*
D03*
X575888D02*
D03*
X574510Y155353D02*
D03*
Y156731D02*
D03*
X573132D02*
D03*
D03*
X573132Y155353D02*
D03*
X574510Y162243D02*
D03*
D03*
X573132Y153975D02*
D03*
X573132Y162243D02*
D03*
X573132Y155353D02*
D03*
X574510Y153975D02*
D03*
X574510Y160865D02*
D03*
X573132Y158109D02*
D03*
Y159487D02*
D03*
X574510D02*
D03*
X573132Y158109D02*
D03*
Y160865D02*
D03*
D03*
X574510D02*
D03*
X573132Y159487D02*
D03*
X574510D02*
D03*
X574510Y163621D02*
D03*
X567621D02*
D03*
X577266D02*
D03*
M02*
