G04*
G04 #@! TF.GenerationSoftware,Altium Limited,Altium Designer,22.10.1 (41)*
G04*
G04 Layer_Color=16711935*
%FSLAX25Y25*%
%MOIN*%
G70*
G04*
G04 #@! TF.SameCoordinates,6EEB4584-1C63-4AE3-A79B-07B07B7A1057*
G04*
G04*
G04 #@! TF.FilePolarity,Negative*
G04*
G01*
G75*
%ADD20R,0.02362X0.02362*%
%ADD59C,0.06302*%
%ADD60R,0.06302X0.06302*%
%ADD71R,0.07480X0.04331*%
%ADD74R,0.02762X0.03747*%
%ADD75R,0.03156X0.03550*%
%ADD76R,0.04337X0.01975*%
%ADD77R,0.09652X0.13195*%
D20*
X533446Y187733D02*
D03*
Y191867D02*
D03*
X572994Y187733D02*
D03*
Y191867D02*
D03*
X563160Y187733D02*
D03*
Y191867D02*
D03*
X552971Y187733D02*
D03*
Y191867D02*
D03*
X593281Y187733D02*
D03*
Y191867D02*
D03*
X583281Y187733D02*
D03*
Y191867D02*
D03*
X543493Y187733D02*
D03*
Y191867D02*
D03*
D59*
X563281Y209333D02*
D03*
Y199333D02*
D03*
X543281D02*
D03*
X553281D02*
D03*
X533281Y209333D02*
D03*
X543281D02*
D03*
X553281D02*
D03*
X573281Y199333D02*
D03*
Y209333D02*
D03*
X593281D02*
D03*
X583281D02*
D03*
X593281Y199333D02*
D03*
X583281D02*
D03*
D60*
X533281D02*
D03*
D71*
X612000Y155421D02*
D03*
Y145579D02*
D03*
D74*
X630724Y151513D02*
D03*
X626000D02*
D03*
D75*
X635252Y166375D02*
D03*
X621473D02*
D03*
D76*
X603284Y151724D02*
D03*
Y148575D02*
D03*
Y145425D02*
D03*
Y142276D02*
D03*
X588717D02*
D03*
Y145425D02*
D03*
Y148575D02*
D03*
Y151724D02*
D03*
D77*
X596000Y147000D02*
D03*
M02*
