G04*
G04 #@! TF.GenerationSoftware,Altium Limited,Altium Designer,22.10.1 (41)*
G04*
G04 Layer_Color=14461039*
%FSLAX25Y25*%
%MOIN*%
G70*
G04*
G04 #@! TF.SameCoordinates,6EEB4584-1C63-4AE3-A79B-07B07B7A1057*
G04*
G04*
G04 #@! TF.FilePolarity,Positive*
G04*
G01*
G75*
%ADD12C,0.00787*%
D12*
X532364Y191867D02*
X534529D01*
Y187733D02*
Y191867D01*
X532364Y187733D02*
X534529D01*
X532364D02*
Y191867D01*
X571912D02*
X574077D01*
Y187733D02*
Y191867D01*
X571912Y187733D02*
X574077D01*
X571912D02*
Y191867D01*
X562077D02*
X564242D01*
Y187733D02*
Y191867D01*
X562077Y187733D02*
X564242D01*
X562077D02*
Y191867D01*
X551888D02*
X554053D01*
Y187733D02*
Y191867D01*
X551888Y187733D02*
X554053D01*
X551888D02*
Y191867D01*
X592198D02*
X594363D01*
Y187733D02*
Y191867D01*
X592198Y187733D02*
X594363D01*
X592198D02*
Y191867D01*
X582198D02*
X584363D01*
Y187733D02*
Y191867D01*
X582198Y187733D02*
X584363D01*
X582198D02*
Y191867D01*
X542411D02*
X544576D01*
Y187733D02*
Y191867D01*
X542411Y187733D02*
X544576D01*
X542411D02*
Y191867D01*
M02*
