G04*
G04 #@! TF.GenerationSoftware,Altium Limited,Altium Designer,22.10.1 (41)*
G04*
G04 Layer_Color=255*
%FSLAX25Y25*%
%MOIN*%
G70*
G04*
G04 #@! TF.SameCoordinates,6EEB4584-1C63-4AE3-A79B-07B07B7A1057*
G04*
G04*
G04 #@! TF.FilePolarity,Positive*
G04*
G01*
G75*
%ADD20R,0.02362X0.02362*%
%ADD64C,0.06102*%
%ADD65R,0.06102X0.06102*%
%ADD69R,0.02362X0.03347*%
%ADD70R,0.02756X0.03150*%
%ADD71R,0.07480X0.04331*%
%ADD72R,0.03937X0.01575*%
%ADD73R,0.09252X0.12795*%
D20*
X533446Y187733D02*
D03*
Y191867D02*
D03*
X572994Y187733D02*
D03*
Y191867D02*
D03*
X563160Y187733D02*
D03*
Y191867D02*
D03*
X552971Y187733D02*
D03*
Y191867D02*
D03*
X593281Y187733D02*
D03*
Y191867D02*
D03*
X583281Y187733D02*
D03*
Y191867D02*
D03*
X543493Y187733D02*
D03*
Y191867D02*
D03*
D64*
X563281Y209333D02*
D03*
Y199333D02*
D03*
X543281D02*
D03*
X553281D02*
D03*
X533281Y209333D02*
D03*
X543281D02*
D03*
X553281D02*
D03*
X573281Y199333D02*
D03*
Y209333D02*
D03*
X593281D02*
D03*
X583281D02*
D03*
X593281Y199333D02*
D03*
X583281D02*
D03*
D65*
X533281D02*
D03*
D69*
X630724Y151513D02*
D03*
X626000D02*
D03*
D70*
X635252Y166375D02*
D03*
X621473D02*
D03*
D71*
X612000Y155421D02*
D03*
Y145579D02*
D03*
D72*
X603284Y151724D02*
D03*
Y148575D02*
D03*
Y145425D02*
D03*
Y142276D02*
D03*
X588717D02*
D03*
Y145425D02*
D03*
Y148575D02*
D03*
Y151724D02*
D03*
D73*
X596000Y147000D02*
D03*
M02*
