G04*
G04 #@! TF.GenerationSoftware,Altium Limited,Altium Designer,22.10.1 (41)*
G04*
G04 Layer_Color=8421504*
%FSLAX25Y25*%
%MOIN*%
G70*
G04*
G04 #@! TF.SameCoordinates,6EEB4584-1C63-4AE3-A79B-07B07B7A1057*
G04*
G04*
G04 #@! TF.FilePolarity,Positive*
G04*
G01*
G75*
%ADD19R,0.04724X0.02559*%
%ADD20R,0.02362X0.02362*%
G04:AMPARAMS|DCode=21|XSize=21.26mil|YSize=23.62mil|CornerRadius=5.53mil|HoleSize=0mil|Usage=FLASHONLY|Rotation=0.000|XOffset=0mil|YOffset=0mil|HoleType=Round|Shape=RoundedRectangle|*
%AMROUNDEDRECTD21*
21,1,0.02126,0.01257,0,0,0.0*
21,1,0.01021,0.02362,0,0,0.0*
1,1,0.01106,0.00510,-0.00628*
1,1,0.01106,-0.00510,-0.00628*
1,1,0.01106,-0.00510,0.00628*
1,1,0.01106,0.00510,0.00628*
%
%ADD21ROUNDEDRECTD21*%
%ADD22R,0.01575X0.01496*%
%ADD23R,0.02638X0.01575*%
%ADD24R,0.04134X0.03937*%
%ADD25R,0.02598X0.01575*%
%ADD26R,0.10984X0.02913*%
%ADD27R,0.03347X0.02461*%
G04:AMPARAMS|DCode=28|XSize=21.26mil|YSize=23.62mil|CornerRadius=5.53mil|HoleSize=0mil|Usage=FLASHONLY|Rotation=90.000|XOffset=0mil|YOffset=0mil|HoleType=Round|Shape=RoundedRectangle|*
%AMROUNDEDRECTD28*
21,1,0.02126,0.01257,0,0,90.0*
21,1,0.01021,0.02362,0,0,90.0*
1,1,0.01106,0.00628,0.00510*
1,1,0.01106,0.00628,-0.00510*
1,1,0.01106,-0.00628,-0.00510*
1,1,0.01106,-0.00628,0.00510*
%
%ADD28ROUNDEDRECTD28*%
%ADD29R,0.03200X0.03500*%
%ADD30R,0.01496X0.01575*%
%ADD31R,0.03500X0.03200*%
%ADD32R,0.01000X0.01400*%
%ADD33R,0.01400X0.01000*%
%ADD34R,0.02953X0.03347*%
%ADD35R,0.01900X0.05400*%
%ADD36R,0.04331X0.07480*%
%ADD37C,0.00835*%
%ADD38R,0.02100X0.07800*%
%ADD39R,0.03000X0.03300*%
%ADD40R,0.03300X0.03000*%
G36*
X596475Y140722D02*
Y149435D01*
X590962D01*
Y140722D01*
X596475D01*
D02*
G37*
G36*
X602775D02*
Y149435D01*
X597262D01*
Y140722D01*
X602775D01*
D02*
G37*
D19*
X622791Y169339D02*
D03*
Y176819D02*
D03*
X633814Y176819D02*
D03*
Y173079D02*
D03*
Y169339D02*
D03*
D20*
X604066Y200487D02*
D03*
Y196353D02*
D03*
X583034Y191867D02*
D03*
Y187733D02*
D03*
X533328Y191867D02*
D03*
Y187733D02*
D03*
X543613Y191749D02*
D03*
Y187616D02*
D03*
X553271Y191855D02*
D03*
Y187721D02*
D03*
X563351Y191964D02*
D03*
Y187830D02*
D03*
X573045Y191867D02*
D03*
Y187733D02*
D03*
D21*
X571628Y148262D02*
D03*
X568084D02*
D03*
X571352Y133808D02*
D03*
X567808D02*
D03*
X557282Y152109D02*
D03*
X553739D02*
D03*
X600597Y162078D02*
D03*
X604140D02*
D03*
X557282Y136609D02*
D03*
X553739D02*
D03*
D22*
X555855Y157944D02*
D03*
X555855Y155732D02*
D03*
X612510Y186503D02*
D03*
X612510Y188715D02*
D03*
X616510Y186503D02*
D03*
X616510Y188715D02*
D03*
X558554Y157944D02*
D03*
X558554Y155732D02*
D03*
D23*
X623636Y159227D02*
D03*
Y156668D02*
D03*
Y154109D02*
D03*
X631510D02*
D03*
Y156668D02*
D03*
Y159227D02*
D03*
D24*
X627573Y157849D02*
D03*
D25*
Y154109D02*
D03*
D26*
X661012Y161500D02*
D03*
Y156500D02*
D03*
Y151500D02*
D03*
Y146500D02*
D03*
Y141500D02*
D03*
X644988D02*
D03*
Y146500D02*
D03*
Y151500D02*
D03*
Y156500D02*
D03*
Y161500D02*
D03*
D27*
X571468Y143797D02*
D03*
Y138581D02*
D03*
D28*
X638537Y172881D02*
D03*
Y169337D02*
D03*
X642537Y172881D02*
D03*
Y169337D02*
D03*
X615510Y172881D02*
D03*
Y169337D02*
D03*
X565510Y171337D02*
D03*
Y174881D02*
D03*
X544510Y171337D02*
D03*
Y174881D02*
D03*
D29*
X640510Y195829D02*
D03*
X644546Y188389D02*
D03*
X636475D02*
D03*
D30*
X639404Y182609D02*
D03*
X641617Y182609D02*
D03*
X633404Y182609D02*
D03*
X635617Y182609D02*
D03*
D31*
X630010Y187609D02*
D03*
X622569Y183573D02*
D03*
Y191644D02*
D03*
D32*
X572510Y169109D02*
D03*
X574323D02*
D03*
X578701Y168853D02*
D03*
X576888D02*
D03*
X561549Y164764D02*
D03*
X559737D02*
D03*
D33*
X570010Y173515D02*
D03*
Y171703D02*
D03*
X583010Y146922D02*
D03*
Y145109D02*
D03*
D34*
X557644Y141794D02*
D03*
Y147109D02*
D03*
X553510D02*
D03*
Y141794D02*
D03*
D35*
X604368Y155578D02*
D03*
X599368D02*
D03*
X594369D02*
D03*
X589368D02*
D03*
Y134579D02*
D03*
X594369D02*
D03*
X599368D02*
D03*
X604368D02*
D03*
D36*
X559932Y172109D02*
D03*
X550089D02*
D03*
D37*
X578644Y164999D02*
D03*
Y163621D02*
D03*
Y162243D02*
D03*
Y160865D02*
D03*
Y159487D02*
D03*
Y158109D02*
D03*
Y156731D02*
D03*
Y155353D02*
D03*
Y153975D02*
D03*
Y152597D02*
D03*
X577266Y164999D02*
D03*
Y163621D02*
D03*
Y162243D02*
D03*
Y160865D02*
D03*
Y159487D02*
D03*
Y158109D02*
D03*
Y156731D02*
D03*
Y155353D02*
D03*
Y153975D02*
D03*
Y152597D02*
D03*
X575888Y164999D02*
D03*
Y163621D02*
D03*
Y162243D02*
D03*
Y160865D02*
D03*
Y159487D02*
D03*
Y158109D02*
D03*
Y156731D02*
D03*
Y153975D02*
D03*
Y152597D02*
D03*
X574510Y164999D02*
D03*
Y163621D02*
D03*
Y162243D02*
D03*
Y160865D02*
D03*
Y159487D02*
D03*
Y158109D02*
D03*
Y156731D02*
D03*
Y155353D02*
D03*
Y153975D02*
D03*
Y152597D02*
D03*
X573132Y164999D02*
D03*
Y163621D02*
D03*
Y162243D02*
D03*
Y160865D02*
D03*
Y159487D02*
D03*
Y158109D02*
D03*
Y156731D02*
D03*
Y155353D02*
D03*
Y153975D02*
D03*
Y152597D02*
D03*
X571754Y164999D02*
D03*
Y163621D02*
D03*
Y162243D02*
D03*
Y160865D02*
D03*
Y159487D02*
D03*
Y158109D02*
D03*
Y156731D02*
D03*
Y155353D02*
D03*
Y153975D02*
D03*
Y152597D02*
D03*
X570376Y164999D02*
D03*
Y163621D02*
D03*
Y162243D02*
D03*
Y160865D02*
D03*
Y159487D02*
D03*
Y158109D02*
D03*
Y156731D02*
D03*
Y155353D02*
D03*
X568998Y164999D02*
D03*
Y163621D02*
D03*
Y162243D02*
D03*
Y160865D02*
D03*
Y159487D02*
D03*
Y158109D02*
D03*
Y156731D02*
D03*
Y153975D02*
D03*
Y152597D02*
D03*
X567621Y164999D02*
D03*
Y163621D02*
D03*
Y162243D02*
D03*
Y160865D02*
D03*
Y159487D02*
D03*
Y158109D02*
D03*
Y156731D02*
D03*
Y155353D02*
D03*
X566243Y164999D02*
D03*
Y163621D02*
D03*
Y162243D02*
D03*
Y160865D02*
D03*
Y159487D02*
D03*
Y158109D02*
D03*
Y156731D02*
D03*
Y155353D02*
D03*
Y153975D02*
D03*
Y152597D02*
D03*
D38*
X604368Y168579D02*
D03*
X599368D02*
D03*
X594369D02*
D03*
X589368D02*
D03*
Y187978D02*
D03*
X594369D02*
D03*
X599368D02*
D03*
X604368D02*
D03*
D39*
X575010Y174109D02*
D03*
X580610D02*
D03*
X580810Y180109D02*
D03*
X575210D02*
D03*
D40*
X551427Y162196D02*
D03*
Y156596D02*
D03*
M02*
