G04*
G04 #@! TF.GenerationSoftware,Altium Limited,Altium Designer,22.10.1 (41)*
G04*
G04 Layer_Color=65535*
%FSLAX25Y25*%
%MOIN*%
G70*
G04*
G04 #@! TF.SameCoordinates,6EEB4584-1C63-4AE3-A79B-07B07B7A1057*
G04*
G04*
G04 #@! TF.FilePolarity,Positive*
G04*
G01*
G75*
%ADD10C,0.00984*%
%ADD12C,0.00787*%
%ADD13C,0.00500*%
%ADD16C,0.00700*%
G36*
X623153Y148995D02*
X624196D01*
Y148556D01*
X623153D01*
Y147513D01*
X622709D01*
Y148556D01*
X621665D01*
Y148995D01*
X622709D01*
Y150049D01*
X623153D01*
Y148995D01*
D02*
G37*
G36*
X634823Y148372D02*
X633363D01*
Y148844D01*
X634823D01*
Y148372D01*
D02*
G37*
D10*
X607573Y151724D02*
G03*
X607573Y151724I-492J0D01*
G01*
D12*
X536202Y187733D02*
Y191867D01*
X530690Y187733D02*
Y191867D01*
X575750Y187733D02*
Y191867D01*
X570238Y187733D02*
Y191867D01*
X565915Y187733D02*
Y191867D01*
X560404Y187733D02*
Y191867D01*
X555726Y187733D02*
Y191867D01*
X550215Y187733D02*
Y191867D01*
X596037Y187733D02*
Y191867D01*
X590525Y187733D02*
Y191867D01*
X586037Y187733D02*
Y191867D01*
X580525Y187733D02*
Y191867D01*
X546249Y187733D02*
Y191867D01*
X540737Y187733D02*
Y191867D01*
D13*
X636630Y151099D02*
Y163580D01*
X633126Y151099D02*
X636630D01*
X620095Y169170D02*
X636630D01*
X620095Y151099D02*
Y163580D01*
Y151099D02*
X623598D01*
X609047Y148768D02*
Y152232D01*
X614953Y148768D02*
Y152232D01*
X603874Y153299D02*
Y154874D01*
X588126Y153299D02*
Y154874D01*
Y139126D02*
Y140701D01*
X603874Y139126D02*
Y140701D01*
X588126Y139126D02*
X603874D01*
X588126Y154874D02*
X603874D01*
D16*
X592301Y183257D02*
X595500D01*
X592301D02*
Y181886D01*
X592453Y181429D01*
X592606Y181276D01*
X592910Y181124D01*
X593215D01*
X593520Y181276D01*
X593672Y181429D01*
X593824Y181886D01*
Y183257D01*
Y182191D02*
X595500Y181124D01*
X593063Y180256D02*
X592910D01*
X592606Y180103D01*
X592453Y179951D01*
X592301Y179646D01*
Y179037D01*
X592453Y178732D01*
X592606Y178580D01*
X592910Y178428D01*
X593215D01*
X593520Y178580D01*
X593977Y178884D01*
X595500Y180408D01*
Y178275D01*
X592301Y176645D02*
X592453Y177102D01*
X592910Y177407D01*
X593672Y177559D01*
X594129D01*
X594891Y177407D01*
X595348Y177102D01*
X595500Y176645D01*
Y176340D01*
X595348Y175883D01*
X594891Y175578D01*
X594129Y175426D01*
X593672D01*
X592910Y175578D01*
X592453Y175883D01*
X592301Y176340D01*
Y176645D01*
X581691Y184589D02*
X584890D01*
X581691D02*
Y183218D01*
X581843Y182761D01*
X581995Y182609D01*
X582300Y182456D01*
X582605D01*
X582909Y182609D01*
X583062Y182761D01*
X583214Y183218D01*
Y184589D01*
Y183523D02*
X584890Y182456D01*
X582300Y181740D02*
X582148Y181436D01*
X581691Y180979D01*
X584890D01*
X581691Y178632D02*
X581843Y179089D01*
X582148Y179242D01*
X582452D01*
X582757Y179089D01*
X582909Y178785D01*
X583062Y178175D01*
X583214Y177718D01*
X583519Y177414D01*
X583824Y177261D01*
X584281D01*
X584585Y177414D01*
X584738Y177566D01*
X584890Y178023D01*
Y178632D01*
X584738Y179089D01*
X584585Y179242D01*
X584281Y179394D01*
X583824D01*
X583519Y179242D01*
X583214Y178937D01*
X583062Y178480D01*
X582909Y177871D01*
X582757Y177566D01*
X582452Y177414D01*
X582148D01*
X581843Y177566D01*
X581691Y178023D01*
Y178632D01*
X571766Y184309D02*
X574965D01*
X571766D02*
Y182938D01*
X571918Y182481D01*
X572071Y182328D01*
X572375Y182176D01*
X572680D01*
X572985Y182328D01*
X573137Y182481D01*
X573289Y182938D01*
Y184309D01*
Y183242D02*
X574965Y182176D01*
X572375Y181460D02*
X572223Y181155D01*
X571766Y180698D01*
X574965D01*
X572223Y177286D02*
X571918Y177438D01*
X571766Y177895D01*
Y178200D01*
X571918Y178657D01*
X572375Y178961D01*
X573137Y179114D01*
X573899D01*
X574508Y178961D01*
X574813Y178657D01*
X574965Y178200D01*
Y178047D01*
X574813Y177590D01*
X574508Y177286D01*
X574051Y177133D01*
X573899D01*
X573442Y177286D01*
X573137Y177590D01*
X572985Y178047D01*
Y178200D01*
X573137Y178657D01*
X573442Y178961D01*
X573899Y179114D01*
X561856Y184257D02*
X565056D01*
X561856D02*
Y182886D01*
X562009Y182429D01*
X562161Y182276D01*
X562466Y182124D01*
X562771D01*
X563075Y182276D01*
X563228Y182429D01*
X563380Y182886D01*
Y184257D01*
Y183190D02*
X565056Y182124D01*
X562466Y181408D02*
X562314Y181103D01*
X561856Y180646D01*
X565056D01*
X561856Y177538D02*
X563989Y179062D01*
Y176776D01*
X561856Y177538D02*
X565056D01*
X551436Y184078D02*
X554635D01*
X551436D02*
Y182707D01*
X551588Y182250D01*
X551741Y182098D01*
X552045Y181946D01*
X552350D01*
X552655Y182098D01*
X552807Y182250D01*
X552960Y182707D01*
Y184078D01*
Y183012D02*
X554635Y181946D01*
X552045Y181229D02*
X551893Y180925D01*
X551436Y180468D01*
X554635D01*
X552198Y178731D02*
X552045D01*
X551741Y178579D01*
X551588Y178426D01*
X551436Y178122D01*
Y177512D01*
X551588Y177208D01*
X551741Y177055D01*
X552045Y176903D01*
X552350D01*
X552655Y177055D01*
X553112Y177360D01*
X554635Y178883D01*
Y176751D01*
X542037Y183874D02*
X545237D01*
X542037D02*
Y182503D01*
X542190Y182046D01*
X542342Y181894D01*
X542647Y181741D01*
X542952D01*
X543256Y181894D01*
X543409Y182046D01*
X543561Y182503D01*
Y183874D01*
Y182808D02*
X545237Y181741D01*
X542647Y181025D02*
X542494Y180720D01*
X542037Y180263D01*
X545237D01*
X542037Y177765D02*
X542190Y178222D01*
X542647Y178527D01*
X543409Y178679D01*
X543866D01*
X544627Y178527D01*
X545084Y178222D01*
X545237Y177765D01*
Y177460D01*
X545084Y177003D01*
X544627Y176699D01*
X543866Y176546D01*
X543409D01*
X542647Y176699D01*
X542190Y177003D01*
X542037Y177460D01*
Y177765D01*
X531515Y183723D02*
X534714D01*
X531515D02*
Y182352D01*
X531667Y181894D01*
X531820Y181742D01*
X532124Y181590D01*
X532429D01*
X532734Y181742D01*
X532886Y181894D01*
X533039Y182352D01*
Y183723D01*
Y182656D02*
X534714Y181590D01*
X531515Y180112D02*
X531667Y180569D01*
X531972Y180721D01*
X532277D01*
X532582Y180569D01*
X532734Y180264D01*
X532886Y179655D01*
X533039Y179198D01*
X533343Y178893D01*
X533648Y178741D01*
X534105D01*
X534410Y178893D01*
X534562Y179045D01*
X534714Y179503D01*
Y180112D01*
X534562Y180569D01*
X534410Y180721D01*
X534105Y180874D01*
X533648D01*
X533343Y180721D01*
X533039Y180417D01*
X532886Y179960D01*
X532734Y179350D01*
X532582Y179045D01*
X532277Y178893D01*
X531972D01*
X531667Y179045D01*
X531515Y179503D01*
Y180112D01*
X628578Y174475D02*
Y172037D01*
X628731Y171580D01*
X628883Y171428D01*
X629188Y171275D01*
X629493D01*
X629797Y171428D01*
X629950Y171580D01*
X630102Y172037D01*
Y172342D01*
X627603Y173713D02*
Y173865D01*
X627451Y174170D01*
X627299Y174322D01*
X626994Y174475D01*
X626385D01*
X626080Y174322D01*
X625927Y174170D01*
X625775Y173865D01*
Y173561D01*
X625927Y173256D01*
X626232Y172799D01*
X627756Y171275D01*
X625623D01*
X620600Y139433D02*
X619076Y140652D01*
X617400D01*
X620600Y141870D02*
X619076Y140652D01*
X620600Y143805D02*
X618467Y142282D01*
Y144567D01*
X620600Y143805D02*
X617400D01*
X604550Y163749D02*
Y161463D01*
X604398Y161006D01*
X604093Y160702D01*
X603636Y160549D01*
X603331D01*
X602874Y160702D01*
X602570Y161006D01*
X602417Y161463D01*
Y163749D01*
X599553Y162682D02*
X599706Y162225D01*
X600010Y161920D01*
X600467Y161768D01*
X600620D01*
X601077Y161920D01*
X601381Y162225D01*
X601534Y162682D01*
Y162835D01*
X601381Y163292D01*
X601077Y163596D01*
X600620Y163749D01*
X600467D01*
X600010Y163596D01*
X599706Y163292D01*
X599553Y162682D01*
Y161920D01*
X599706Y161159D01*
X600010Y160702D01*
X600467Y160549D01*
X600772D01*
X601229Y160702D01*
X601381Y161006D01*
M02*
