M48
;Layer_Color=9474304
;FILE_FORMAT=2:5
INCH,LZ
;TYPE=PLATED
T1F00S00C0.00400
%
T01
X0570376Y0155353
X0571754
X0573132
X057451
X057451Y0153975
X0575888
X0577266
X057451Y0156731
Y0158109
X0573132
Y0156731
X0571754
X0570376
X0568998
Y0158109
X0570376
X0571754
Y0159487
Y0160865
Y0162243
X0570376
X0568998
Y0160865
Y0159487
X0570376
Y0160865
X0573132
Y0162243
X057451
Y0160865
Y0159487
X0573132
M30
