M48
;Layer_Color=9474304
;FILE_FORMAT=2:5
INCH,LZ
;TYPE=PLATED
T1F00S00C0.00400
%
T01
X0568998Y0153975
X0567621Y0155353
X0570376
X0571754
Y0153975
X0573132
Y0155353
X057451
X057451Y0153975
X0575888
X0577266
X0578644
Y0155353
Y0160865
X057451
Y0162243
X0573132
Y0160865
Y0159487
X057451
Y0158109
Y0156731
X0573132
Y0158109
X0571754
Y0156731
X0570376
X0568998
Y0158109
X0567621
X0570376
Y0159487
X0568998
Y0160865
X0567621
Y0162243
X0568998
X0570376
Y0163621
X0571754
X0573132
X057451
X0577266
X0571754Y0162243
Y0160865
Y0159487
X0570376Y0160865
X0568998Y0163621
X0567621
M30
