M48
;Layer_Color=9474304
;FILE_FORMAT=2:5
INCH,LZ
;TYPE=PLATED
T2F00S00C0.00800
T3F00S00C0.01000
T4F00S00C0.04016
%
T02
X0565298Y0134159
Y0136159
Y0138159
Y0140159
Y0142159
Y0144159
Y0146159
Y0148159
X0567298Y0145159
Y0143159
Y0141159
Y0139159
Y0137159
X0575702Y0137
Y0135
Y0133
X0577702Y0134
Y0136
Y0138
Y014
Y0142
Y0144
Y0146
X0575702Y0147
Y0145
Y0143
Y0141
Y0139
X0577002Y0148796
X058101Y0149909
X058051Y0146609
X0582128Y0153509
X0636453Y0195829
X061301Y0182609
X061151Y0169109
Y0165609
X061501
X061851
Y0169109
Y0162109
X061501
X061151
X0584Y01595
X058051Y0158109
X0581688Y0166104
X057901Y0171109
X057651
X057Y0179
X0571355Y0181171
X0568Y01815
X0569853Y018624
X0575952Y0186766
X0579942Y0190489
X0582306Y0184665
X0588566Y0182878
X0599489Y0193395
X056653Y0190151
X0563241Y0184918
X0551617Y0181917
X0544615
X0542276
X0534367
X0531825
X0544433Y0168275
X0547906Y0164366
X0555218Y0166988
X0559102Y0166973
X0562254Y0166741
X0557432Y0164903
X05605Y01605
X0560957Y0157687
X0563Y015696
T03
X0528Y0136
X0536
X0544
X0548Y0144
X054
X0532
X0536Y0152
X0544
X0528
X056Y0136
X0584
X0592
X0616
X0624
X0619Y01485
X0625148Y0147471
X0629873
X0628Y0144
X0636
X0637763Y0146608
X064Y0136
X0648
X0656
X0653Y01415
Y01515
X0632Y0136
X0653Y01615
X0656Y0168
X0648
X0645502Y0169329
X0644Y0176
X0652
X066
X0656Y0184
X0648
X0652Y0192
X066
X0656Y02
X0648
X064
X0632
X0636Y0208
X0644
X0652
X066
X0644Y0192
X0636
X0628
Y018
Y0208
X062
X0612
X0604
X0608Y02
X0616
X0624
X0612Y0192
X0616Y0184
X0612Y0176
X0604
X0596
X0588Y0208
X0548
Y0192
X0556
X056Y0184
X054Y0192
Y0176
X0536Y0168
X0528
X0532Y016
X0528Y0184
Y02
T04
X0533281Y0199333
X0543281
X0553281
X0563281
Y0209333
X0553281
X0543281
X0533281
X0573281
Y0199333
X0583281
Y0209333
X0593281
Y0199333
M30
